<svg width="295" height="95" viewBox="0 0 295 95" fill="none" xmlns="http://www.w3.org/2000/svg">
<path d="M8.48 12L7.36 8.704H2.848L1.728 12H0.368L4.272 0.832H5.984L9.888 12H8.48ZM5.136 2.08H5.056L3.168 7.52H7.024L5.136 2.08ZM12.97 12C12.522 12 12.1807 11.8773 11.946 11.632C11.722 11.376 11.61 11.056 11.61 10.672V0.16H12.89V10.88H14.106V12H12.97ZM17.2513 12C16.8033 12 16.4619 11.8773 16.2273 11.632C16.0033 11.376 15.8913 11.056 15.8913 10.672V0.16H17.1713V10.88H18.3873V12H17.2513ZM24.0319 12V3.744H25.3119V5.264H25.3919C25.5412 4.86933 25.8079 4.51733 26.1919 4.208C26.5759 3.89867 27.1039 3.744 27.7759 3.744H28.2719V5.024H27.5199C26.8265 5.024 26.2825 5.15733 25.8879 5.424C25.5039 5.68 25.3119 6.00533 25.3119 6.4V12H24.0319ZM30.5469 1.808C30.2695 1.808 30.0669 1.744 29.9389 1.616C29.8215 1.47733 29.7629 1.30133 29.7629 1.088V0.879999C29.7629 0.666666 29.8215 0.495999 29.9389 0.367999C30.0669 0.229333 30.2695 0.16 30.5469 0.16C30.8242 0.16 31.0215 0.229333 31.1389 0.367999C31.2669 0.495999 31.3309 0.666666 31.3309 0.879999V1.088C31.3309 1.30133 31.2669 1.47733 31.1389 1.616C31.0215 1.744 30.8242 1.808 30.5469 1.808ZM29.9069 3.744H31.1869V12H29.9069V3.744ZM40.8669 12.912C40.8669 13.7653 40.5309 14.3893 39.8589 14.784C39.1975 15.1893 38.2002 15.392 36.8669 15.392C35.5762 15.392 34.6482 15.216 34.0829 14.864C33.5175 14.512 33.2349 14.0107 33.2349 13.36C33.2349 12.912 33.3522 12.56 33.5869 12.304C33.8215 12.0587 34.1415 11.8773 34.5469 11.76V11.584C34.0562 11.3493 33.8109 10.9653 33.8109 10.432C33.8109 10.016 33.9442 9.70133 34.2109 9.488C34.4775 9.264 34.8189 9.09867 35.2349 8.992V8.928C34.7442 8.69333 34.3602 8.35733 34.0829 7.92C33.8162 7.48267 33.6829 6.976 33.6829 6.4C33.6829 5.984 33.7575 5.6 33.9069 5.248C34.0562 4.896 34.2642 4.59733 34.5309 4.352C34.8082 4.096 35.1335 3.89867 35.5069 3.76C35.8909 3.62133 36.3175 3.552 36.7869 3.552C37.3735 3.552 37.8962 3.65867 38.3549 3.872V3.728C38.3549 3.408 38.4295 3.14667 38.5789 2.944C38.7282 2.73067 38.9735 2.624 39.3149 2.624H40.5469V3.744H38.9789V4.272C39.2775 4.528 39.5069 4.83733 39.6669 5.2C39.8375 5.552 39.9229 5.952 39.9229 6.4C39.9229 6.816 39.8482 7.2 39.6989 7.552C39.5495 7.904 39.3362 8.208 39.0589 8.464C38.7922 8.70933 38.4669 8.90133 38.0829 9.04C37.6989 9.17867 37.2722 9.248 36.8029 9.248C36.5362 9.248 36.2695 9.22133 36.0029 9.168C35.7255 9.24267 35.4749 9.35467 35.2509 9.504C35.0269 9.64267 34.9149 9.84 34.9149 10.096C34.9149 10.3413 35.0322 10.5067 35.2669 10.592C35.5015 10.6773 35.8055 10.72 36.1789 10.72H37.9389C38.9629 10.72 39.7042 10.9173 40.1629 11.312C40.6322 11.696 40.8669 12.2293 40.8669 12.912ZM39.6669 13.008C39.6669 12.6773 39.5389 12.4107 39.2829 12.208C39.0375 12.016 38.5949 11.92 37.9549 11.92H35.2029C34.6909 12.1547 34.4349 12.528 34.4349 13.04C34.4349 13.4027 34.5682 13.712 34.8349 13.968C35.1122 14.224 35.5762 14.352 36.2269 14.352H37.4109C38.1255 14.352 38.6802 14.24 39.0749 14.016C39.4695 13.792 39.6669 13.456 39.6669 13.008ZM36.8029 8.224C37.3469 8.224 37.7789 8.096 38.0989 7.84C38.4189 7.57333 38.5789 7.168 38.5789 6.624V6.176C38.5789 5.632 38.4189 5.232 38.0989 4.976C37.7789 4.70933 37.3469 4.576 36.8029 4.576C36.2589 4.576 35.8269 4.70933 35.5069 4.976C35.1869 5.232 35.0269 5.632 35.0269 6.176V6.624C35.0269 7.168 35.1869 7.57333 35.5069 7.84C35.8269 8.096 36.2589 8.224 36.8029 8.224ZM42.36 0.16H43.64V5.088H43.704C43.9067 4.61867 44.1893 4.24533 44.552 3.968C44.9253 3.69067 45.4213 3.552 46.04 3.552C46.8933 3.552 47.5653 3.82933 48.056 4.384C48.5573 4.928 48.808 5.70133 48.808 6.704V12H47.528V6.928C47.528 5.44533 46.904 4.704 45.656 4.704C45.4 4.704 45.1493 4.736 44.904 4.8C44.6693 4.864 44.456 4.96 44.264 5.088C44.072 5.216 43.9173 5.38133 43.8 5.584C43.6933 5.776 43.64 6.00533 43.64 6.272V12H42.36V0.16ZM53.2778 12C52.8298 12 52.4884 11.8773 52.2538 11.632C52.0298 11.376 51.9178 11.0453 51.9178 10.64V4.864H50.5578V3.744H51.3258C51.6031 3.744 51.7898 3.69067 51.8858 3.584C51.9924 3.46667 52.0458 3.26933 52.0458 2.992V1.456H53.1978V3.744H55.0058V4.864H53.1978V10.88H54.8778V12H53.2778ZM59.5431 12.192C58.7751 12.192 58.1298 12.048 57.6071 11.76C57.0951 11.4613 56.6525 11.0667 56.2791 10.576L57.1911 9.84C57.5111 10.2453 57.8685 10.56 58.2631 10.784C58.6578 10.9973 59.1165 11.104 59.6391 11.104C60.1831 11.104 60.6045 10.9867 60.9031 10.752C61.2125 10.5173 61.3671 10.1867 61.3671 9.76C61.3671 9.44 61.2605 9.168 61.0471 8.944C60.8445 8.70933 60.4711 8.54933 59.9271 8.464L59.2711 8.368C58.8871 8.31467 58.5351 8.23467 58.2151 8.128C57.8951 8.01067 57.6125 7.86133 57.3671 7.68C57.1325 7.488 56.9458 7.25333 56.8071 6.976C56.6791 6.69867 56.6151 6.368 56.6151 5.984C56.6151 5.57867 56.6898 5.22667 56.8391 4.928C56.9885 4.61867 57.1911 4.36267 57.4471 4.16C57.7138 3.95733 58.0285 3.808 58.3911 3.712C58.7538 3.60533 59.1431 3.552 59.5591 3.552C60.2311 3.552 60.7911 3.66933 61.2391 3.904C61.6978 4.13867 62.0978 4.464 62.4391 4.88L61.5911 5.648C61.4098 5.392 61.1431 5.16267 60.7911 4.96C60.4391 4.74667 59.9965 4.64 59.4631 4.64C58.9298 4.64 58.5245 4.75733 58.2471 4.992C57.9805 5.216 57.8471 5.52533 57.8471 5.92C57.8471 6.32533 57.9805 6.61867 58.2471 6.8C58.5245 6.98133 58.9191 7.11467 59.4311 7.2L60.0711 7.296C60.9885 7.43467 61.6391 7.70133 62.0231 8.096C62.4071 8.48 62.5991 8.98667 62.5991 9.616C62.5991 10.416 62.3271 11.0453 61.7831 11.504C61.2391 11.9627 60.4925 12.192 59.5431 12.192ZM68.6413 12V3.744H69.9213V5.264H70.0013C70.1506 4.86933 70.4173 4.51733 70.8013 4.208C71.1853 3.89867 71.7133 3.744 72.3853 3.744H72.8813V5.024H72.1293C71.4359 5.024 70.8919 5.15733 70.4973 5.424C70.1133 5.68 69.9213 6.00533 69.9213 6.4V12H68.6413ZM77.5421 12.192C76.9768 12.192 76.4648 12.0907 76.0061 11.888C75.5581 11.6853 75.1688 11.3973 74.8381 11.024C74.5181 10.64 74.2675 10.1867 74.0861 9.664C73.9155 9.13067 73.8301 8.53333 73.8301 7.872C73.8301 7.22133 73.9155 6.62933 74.0861 6.096C74.2675 5.56267 74.5181 5.10933 74.8381 4.736C75.1688 4.352 75.5581 4.05867 76.0061 3.856C76.4648 3.65333 76.9768 3.552 77.5421 3.552C78.0968 3.552 78.5928 3.65333 79.0301 3.856C79.4675 4.05867 79.8408 4.34133 80.1501 4.704C80.4595 5.056 80.6941 5.47733 80.8541 5.968C81.0248 6.45867 81.1101 6.99733 81.1101 7.584V8.192H75.1741V8.576C75.1741 8.928 75.2275 9.25867 75.3341 9.568C75.4515 9.86667 75.6115 10.128 75.8141 10.352C76.0275 10.576 76.2835 10.752 76.5821 10.88C76.8915 11.008 77.2381 11.072 77.6221 11.072C78.1448 11.072 78.5981 10.9493 78.9821 10.704C79.3768 10.4587 79.6808 10.1067 79.8941 9.648L80.8061 10.304C80.5395 10.8693 80.1235 11.328 79.5581 11.68C78.9928 12.0213 78.3208 12.192 77.5421 12.192ZM77.5421 4.624C77.1901 4.624 76.8701 4.688 76.5821 4.816C76.2941 4.93333 76.0435 5.104 75.8301 5.328C75.6275 5.552 75.4675 5.81867 75.3501 6.128C75.2328 6.42667 75.1741 6.75733 75.1741 7.12V7.232H79.7341V7.056C79.7341 6.32 79.5315 5.73333 79.1261 5.296C78.7315 4.848 78.2035 4.624 77.5421 4.624ZM85.6994 12.192C84.9314 12.192 84.286 12.048 83.7634 11.76C83.2514 11.4613 82.8087 11.0667 82.4354 10.576L83.3474 9.84C83.6674 10.2453 84.0247 10.56 84.4194 10.784C84.814 10.9973 85.2727 11.104 85.7954 11.104C86.3394 11.104 86.7607 10.9867 87.0594 10.752C87.3687 10.5173 87.5234 10.1867 87.5234 9.76C87.5234 9.44 87.4167 9.168 87.2034 8.944C87.0007 8.70933 86.6274 8.54933 86.0834 8.464L85.4274 8.368C85.0434 8.31467 84.6914 8.23467 84.3714 8.128C84.0514 8.01067 83.7687 7.86133 83.5234 7.68C83.2887 7.488 83.102 7.25333 82.9634 6.976C82.8354 6.69867 82.7714 6.368 82.7714 5.984C82.7714 5.57867 82.846 5.22667 82.9954 4.928C83.1447 4.61867 83.3474 4.36267 83.6034 4.16C83.87 3.95733 84.1847 3.808 84.5474 3.712C84.91 3.60533 85.2994 3.552 85.7154 3.552C86.3874 3.552 86.9474 3.66933 87.3954 3.904C87.854 4.13867 88.254 4.464 88.5954 4.88L87.7474 5.648C87.566 5.392 87.2994 5.16267 86.9474 4.96C86.5954 4.74667 86.1527 4.64 85.6194 4.64C85.086 4.64 84.6807 4.75733 84.4034 4.992C84.1367 5.216 84.0034 5.52533 84.0034 5.92C84.0034 6.32533 84.1367 6.61867 84.4034 6.8C84.6807 6.98133 85.0754 7.11467 85.5874 7.2L86.2274 7.296C87.1447 7.43467 87.7954 7.70133 88.1794 8.096C88.5634 8.48 88.7554 8.98667 88.7554 9.616C88.7554 10.416 88.4834 11.0453 87.9394 11.504C87.3954 11.9627 86.6487 12.192 85.6994 12.192ZM94.1203 12.192C93.5549 12.192 93.0429 12.0907 92.5843 11.888C92.1363 11.6853 91.7469 11.3973 91.4163 11.024C91.0963 10.64 90.8456 10.1867 90.6643 9.664C90.4936 9.13067 90.4083 8.53333 90.4083 7.872C90.4083 7.22133 90.4936 6.62933 90.6643 6.096C90.8456 5.56267 91.0963 5.10933 91.4163 4.736C91.7469 4.352 92.1363 4.05867 92.5843 3.856C93.0429 3.65333 93.5549 3.552 94.1203 3.552C94.6749 3.552 95.1709 3.65333 95.6083 3.856C96.0456 4.05867 96.4189 4.34133 96.7283 4.704C97.0376 5.056 97.2723 5.47733 97.4323 5.968C97.6029 6.45867 97.6883 6.99733 97.6883 7.584V8.192H91.7523V8.576C91.7523 8.928 91.8056 9.25867 91.9123 9.568C92.0296 9.86667 92.1896 10.128 92.3923 10.352C92.6056 10.576 92.8616 10.752 93.1603 10.88C93.4696 11.008 93.8163 11.072 94.2003 11.072C94.7229 11.072 95.1763 10.9493 95.5603 10.704C95.9549 10.4587 96.2589 10.1067 96.4723 9.648L97.3843 10.304C97.1176 10.8693 96.7016 11.328 96.1363 11.68C95.5709 12.0213 94.8989 12.192 94.1203 12.192ZM94.1203 4.624C93.7683 4.624 93.4483 4.688 93.1603 4.816C92.8723 4.93333 92.6216 5.104 92.4083 5.328C92.2056 5.552 92.0456 5.81867 91.9283 6.128C91.8109 6.42667 91.7523 6.75733 91.7523 7.12V7.232H96.3123V7.056C96.3123 6.32 96.1096 5.73333 95.7043 5.296C95.3096 4.848 94.7816 4.624 94.1203 4.624ZM99.7975 12V3.744H101.078V5.264H101.158C101.307 4.86933 101.574 4.51733 101.958 4.208C102.342 3.89867 102.87 3.744 103.542 3.744H104.038V5.024H103.286C102.592 5.024 102.048 5.15733 101.654 5.424C101.27 5.68 101.078 6.00533 101.078 6.4V12H99.7975ZM107.653 12L104.757 3.744H106.037L107.477 7.84L108.373 10.656H108.453L109.349 7.84L110.821 3.744H112.053L109.141 12H107.653ZM116.683 12.192C116.117 12.192 115.605 12.0907 115.147 11.888C114.699 11.6853 114.309 11.3973 113.979 11.024C113.659 10.64 113.408 10.1867 113.227 9.664C113.056 9.13067 112.971 8.53333 112.971 7.872C112.971 7.22133 113.056 6.62933 113.227 6.096C113.408 5.56267 113.659 5.10933 113.979 4.736C114.309 4.352 114.699 4.05867 115.147 3.856C115.605 3.65333 116.117 3.552 116.683 3.552C117.237 3.552 117.733 3.65333 118.171 3.856C118.608 4.05867 118.981 4.34133 119.291 4.704C119.6 5.056 119.835 5.47733 119.995 5.968C120.165 6.45867 120.251 6.99733 120.251 7.584V8.192H114.315V8.576C114.315 8.928 114.368 9.25867 114.475 9.568C114.592 9.86667 114.752 10.128 114.955 10.352C115.168 10.576 115.424 10.752 115.723 10.88C116.032 11.008 116.379 11.072 116.763 11.072C117.285 11.072 117.739 10.9493 118.123 10.704C118.517 10.4587 118.821 10.1067 119.035 9.648L119.947 10.304C119.68 10.8693 119.264 11.328 118.699 11.68C118.133 12.0213 117.461 12.192 116.683 12.192ZM116.683 4.624C116.331 4.624 116.011 4.688 115.723 4.816C115.435 4.93333 115.184 5.104 114.971 5.328C114.768 5.552 114.608 5.81867 114.491 6.128C114.373 6.42667 114.315 6.75733 114.315 7.12V7.232H118.875V7.056C118.875 6.32 118.672 5.73333 118.267 5.296C117.872 4.848 117.344 4.624 116.683 4.624ZM127.64 10.656H127.576C127.075 11.68 126.269 12.192 125.16 12.192C124.648 12.192 124.184 12.0907 123.768 11.888C123.352 11.6853 122.995 11.3973 122.696 11.024C122.408 10.6507 122.184 10.1973 122.024 9.664C121.875 9.13067 121.8 8.53333 121.8 7.872C121.8 7.21067 121.875 6.61333 122.024 6.08C122.184 5.54667 122.408 5.09333 122.696 4.72C122.995 4.34667 123.352 4.05867 123.768 3.856C124.184 3.65333 124.648 3.552 125.16 3.552C125.736 3.552 126.227 3.68 126.632 3.936C127.048 4.18133 127.363 4.56533 127.576 5.088H127.64V0.16H128.92V12H127.64V10.656ZM125.512 11.04C125.8 11.04 126.072 11.0027 126.328 10.928C126.595 10.8533 126.824 10.7467 127.016 10.608C127.208 10.4587 127.357 10.2827 127.464 10.08C127.581 9.86667 127.64 9.62667 127.64 9.36V6.288C127.64 6.064 127.581 5.856 127.464 5.664C127.357 5.46133 127.208 5.29067 127.016 5.152C126.824 5.01333 126.595 4.90667 126.328 4.832C126.072 4.74667 125.8 4.704 125.512 4.704C124.787 4.704 124.216 4.93333 123.8 5.392C123.384 5.84 123.176 6.432 123.176 7.168V8.576C123.176 9.312 123.384 9.90933 123.8 10.368C124.216 10.816 124.787 11.04 125.512 11.04ZM140.271 12.176C139.524 12.176 138.825 12.0427 138.174 11.776C137.524 11.5093 136.959 11.1307 136.479 10.64C135.999 10.1387 135.62 9.53067 135.343 8.816C135.065 8.10133 134.927 7.30133 134.927 6.416C134.927 5.53067 135.065 4.73067 135.343 4.016C135.62 3.30133 135.999 2.69867 136.479 2.208C136.959 1.70667 137.524 1.32267 138.174 1.056C138.825 0.789333 139.524 0.655999 140.271 0.655999C141.017 0.655999 141.716 0.789333 142.367 1.056C143.017 1.32267 143.583 1.70667 144.062 2.208C144.543 2.69867 144.921 3.30133 145.199 4.016C145.476 4.73067 145.615 5.53067 145.615 6.416C145.615 7.30133 145.476 8.10133 145.199 8.816C144.921 9.53067 144.543 10.1387 144.062 10.64C143.583 11.1307 143.017 11.5093 142.367 11.776C141.716 12.0427 141.017 12.176 140.271 12.176ZM140.271 11.216C140.889 11.216 141.46 11.1093 141.983 10.896C142.505 10.672 142.953 10.368 143.327 9.984C143.711 9.6 144.004 9.14667 144.207 8.624C144.42 8.09067 144.527 7.51467 144.527 6.896V5.936C144.527 5.31733 144.42 4.74667 144.207 4.224C144.004 3.69067 143.711 3.232 143.327 2.848C142.953 2.464 142.505 2.16533 141.983 1.952C141.46 1.728 140.889 1.616 140.271 1.616C139.641 1.616 139.065 1.728 138.543 1.952C138.031 2.16533 137.583 2.464 137.199 2.848C136.825 3.232 136.532 3.69067 136.319 4.224C136.116 4.74667 136.015 5.31733 136.015 5.936V6.896C136.015 7.51467 136.116 8.09067 136.319 8.624C136.532 9.14667 136.825 9.6 137.199 9.984C137.583 10.368 138.031 10.672 138.543 10.896C139.065 11.1093 139.641 11.216 140.271 11.216ZM140.399 9.52C139.567 9.52 138.916 9.24267 138.447 8.688C137.988 8.12267 137.759 7.36533 137.759 6.416C137.759 5.46667 137.988 4.71467 138.447 4.16C138.916 3.59467 139.567 3.312 140.399 3.312C140.943 3.312 141.385 3.44 141.727 3.696C142.079 3.952 142.345 4.288 142.527 4.704L141.615 5.216C141.497 4.93867 141.343 4.72 141.151 4.56C140.959 4.4 140.708 4.32 140.399 4.32C139.929 4.32 139.572 4.46933 139.327 4.768C139.092 5.056 138.975 5.43467 138.975 5.904V6.944C138.975 7.41333 139.092 7.79733 139.327 8.096C139.572 8.384 139.929 8.528 140.399 8.528C140.74 8.528 141.012 8.44267 141.215 8.272C141.417 8.09067 141.599 7.856 141.759 7.568L142.623 8.112C142.441 8.51733 142.164 8.85333 141.791 9.12C141.428 9.38667 140.964 9.52 140.399 9.52ZM151.754 12V0.832H158.57V2.016H153.098V5.76H158.25V6.944H153.098V10.816H158.57V12H151.754ZM166.078 10.656H166.014C165.512 11.68 164.707 12.192 163.598 12.192C163.086 12.192 162.622 12.0907 162.206 11.888C161.79 11.6853 161.432 11.3973 161.134 11.024C160.846 10.6507 160.622 10.1973 160.462 9.664C160.312 9.13067 160.238 8.53333 160.238 7.872C160.238 7.21067 160.312 6.61333 160.462 6.08C160.622 5.54667 160.846 5.09333 161.134 4.72C161.432 4.34667 161.79 4.05867 162.206 3.856C162.622 3.65333 163.086 3.552 163.598 3.552C164.174 3.552 164.664 3.68 165.07 3.936C165.486 4.18133 165.8 4.56533 166.014 5.088H166.078V3.744H167.358V15.2H166.078V10.656ZM163.95 11.04C164.238 11.04 164.51 11.0027 164.766 10.928C165.032 10.8533 165.262 10.7467 165.454 10.608C165.646 10.4587 165.795 10.2827 165.902 10.08C166.019 9.86667 166.078 9.62667 166.078 9.36V6.288C166.078 6.064 166.019 5.856 165.902 5.664C165.795 5.46133 165.646 5.29067 165.454 5.152C165.262 5.01333 165.032 4.90667 164.766 4.832C164.51 4.74667 164.238 4.704 163.95 4.704C163.224 4.704 162.654 4.93333 162.238 5.392C161.822 5.84 161.614 6.432 161.614 7.168V8.576C161.614 9.312 161.822 9.90933 162.238 10.368C162.654 10.816 163.224 11.04 163.95 11.04ZM175.167 10.656H175.103C175.017 10.848 174.911 11.04 174.783 11.232C174.665 11.4133 174.516 11.5787 174.335 11.728C174.153 11.8667 173.935 11.9787 173.679 12.064C173.423 12.1493 173.124 12.192 172.783 12.192C171.929 12.192 171.252 11.92 170.751 11.376C170.249 10.8213 169.999 10.0427 169.999 9.04V3.744H171.279V8.816C171.279 10.2987 171.908 11.04 173.167 11.04C173.423 11.04 173.668 11.008 173.903 10.944C174.148 10.88 174.361 10.784 174.543 10.656C174.735 10.528 174.884 10.368 174.991 10.176C175.108 9.97333 175.167 9.73333 175.167 9.456V3.744H176.447V12H175.167V10.656ZM185.173 12C184.693 12 184.346 11.872 184.133 11.616C183.93 11.36 183.802 11.04 183.749 10.656H183.669C183.487 11.168 183.189 11.552 182.773 11.808C182.357 12.064 181.861 12.192 181.285 12.192C180.41 12.192 179.727 11.968 179.237 11.52C178.757 11.072 178.517 10.464 178.517 9.696C178.517 8.91733 178.799 8.32 179.365 7.904C179.941 7.488 180.831 7.28 182.036 7.28H183.669V6.464C183.669 5.87733 183.509 5.42933 183.189 5.12C182.869 4.81067 182.378 4.656 181.717 4.656C181.215 4.656 180.794 4.768 180.453 4.992C180.122 5.216 179.845 5.51467 179.621 5.888L178.853 5.168C179.077 4.72 179.434 4.34133 179.924 4.032C180.415 3.712 181.034 3.552 181.781 3.552C182.783 3.552 183.562 3.79733 184.117 4.288C184.671 4.77867 184.949 5.46133 184.949 6.336V10.88H185.892V12H185.173ZM181.493 11.104C181.813 11.104 182.106 11.0667 182.373 10.992C182.639 10.9173 182.869 10.8107 183.061 10.672C183.253 10.5333 183.402 10.3733 183.509 10.192C183.615 10.0107 183.669 9.81333 183.669 9.6V8.24H181.973C181.237 8.24 180.698 8.34667 180.357 8.56C180.026 8.77333 179.861 9.08267 179.861 9.488V9.824C179.861 10.2293 180.005 10.544 180.293 10.768C180.591 10.992 180.991 11.104 181.493 11.104ZM189.079 12C188.631 12 188.29 11.8773 188.055 11.632C187.831 11.376 187.719 11.056 187.719 10.672V0.16H188.999V10.88H190.215V12H189.079ZM192.719 1.808C192.441 1.808 192.239 1.744 192.111 1.616C191.993 1.47733 191.935 1.30133 191.935 1.088V0.879999C191.935 0.666666 191.993 0.495999 192.111 0.367999C192.239 0.229333 192.441 0.16 192.719 0.16C192.996 0.16 193.193 0.229333 193.311 0.367999C193.439 0.495999 193.503 0.666666 193.503 0.879999V1.088C193.503 1.30133 193.439 1.47733 193.311 1.616C193.193 1.744 192.996 1.808 192.719 1.808ZM192.079 3.744H193.359V12H192.079V3.744ZM195.247 12V10.928L199.935 4.864H195.391V3.744H201.487V4.704L196.703 10.88H201.615V12H195.247ZM206.448 12.192C205.883 12.192 205.371 12.0907 204.912 11.888C204.464 11.6853 204.075 11.3973 203.744 11.024C203.424 10.64 203.174 10.1867 202.992 9.664C202.822 9.13067 202.736 8.53333 202.736 7.872C202.736 7.22133 202.822 6.62933 202.992 6.096C203.174 5.56267 203.424 5.10933 203.744 4.736C204.075 4.352 204.464 4.05867 204.912 3.856C205.371 3.65333 205.883 3.552 206.448 3.552C207.003 3.552 207.499 3.65333 207.936 3.856C208.374 4.05867 208.747 4.34133 209.056 4.704C209.366 5.056 209.6 5.47733 209.76 5.968C209.931 6.45867 210.016 6.99733 210.016 7.584V8.192H204.08V8.576C204.08 8.928 204.134 9.25867 204.24 9.568C204.358 9.86667 204.518 10.128 204.72 10.352C204.934 10.576 205.19 10.752 205.488 10.88C205.798 11.008 206.144 11.072 206.528 11.072C207.051 11.072 207.504 10.9493 207.888 10.704C208.283 10.4587 208.587 10.1067 208.8 9.648L209.712 10.304C209.446 10.8693 209.03 11.328 208.464 11.68C207.899 12.0213 207.227 12.192 206.448 12.192ZM206.448 4.624C206.096 4.624 205.776 4.688 205.488 4.816C205.2 4.93333 204.95 5.104 204.736 5.328C204.534 5.552 204.374 5.81867 204.256 6.128C204.139 6.42667 204.08 6.75733 204.08 7.12V7.232H208.64V7.056C208.64 6.32 208.438 5.73333 208.032 5.296C207.638 4.848 207.11 4.624 206.448 4.624ZM212.126 12V3.744H213.406V5.264H213.486C213.635 4.86933 213.902 4.51733 214.286 4.208C214.67 3.89867 215.198 3.744 215.87 3.744H216.366V5.024H215.614C214.92 5.024 214.376 5.15733 213.982 5.424C213.598 5.68 213.406 6.00533 213.406 6.4V12H212.126ZM228.95 12H221.622V10.624L225.27 7.264C225.793 6.784 226.23 6.27733 226.582 5.744C226.934 5.2 227.11 4.656 227.11 4.112V3.92C227.11 3.30133 226.939 2.8 226.598 2.416C226.257 2.032 225.739 1.84 225.046 1.84C224.705 1.84 224.406 1.888 224.15 1.984C223.894 2.08 223.67 2.21333 223.478 2.384C223.297 2.55467 223.142 2.75733 223.014 2.992C222.897 3.216 222.801 3.46133 222.726 3.728L221.526 3.264C221.633 2.93333 221.777 2.61333 221.958 2.304C222.15 1.984 222.385 1.70133 222.662 1.456C222.95 1.21067 223.291 1.01333 223.686 0.863999C224.091 0.714666 224.566 0.639999 225.11 0.639999C225.654 0.639999 226.139 0.719999 226.566 0.879999C226.993 1.04 227.35 1.264 227.638 1.552C227.926 1.84 228.145 2.18133 228.294 2.576C228.454 2.97067 228.534 3.408 228.534 3.888C228.534 4.32533 228.47 4.73067 228.342 5.104C228.225 5.47733 228.059 5.83467 227.846 6.176C227.633 6.50667 227.371 6.832 227.062 7.152C226.763 7.472 226.438 7.792 226.086 8.112L223.078 10.816H228.95V12ZM234.816 12.192C233.482 12.192 232.506 11.6853 231.888 10.672C231.28 9.65867 230.976 8.24 230.976 6.416C230.976 4.592 231.28 3.17333 231.888 2.16C232.506 1.14667 233.482 0.639999 234.816 0.639999C236.149 0.639999 237.12 1.14667 237.728 2.16C238.346 3.17333 238.656 4.592 238.656 6.416C238.656 8.24 238.346 9.65867 237.728 10.672C237.12 11.6853 236.149 12.192 234.816 12.192ZM234.816 11.024C235.253 11.024 235.626 10.9333 235.936 10.752C236.245 10.5707 236.496 10.3147 236.688 9.984C236.88 9.65333 237.018 9.264 237.104 8.816C237.2 8.368 237.248 7.872 237.248 7.328V5.504C237.248 4.96 237.2 4.464 237.104 4.016C237.018 3.568 236.88 3.17867 236.688 2.848C236.496 2.51733 236.245 2.26133 235.936 2.08C235.626 1.89867 235.253 1.808 234.816 1.808C234.378 1.808 234.005 1.89867 233.696 2.08C233.386 2.26133 233.136 2.51733 232.944 2.848C232.752 3.17867 232.608 3.568 232.512 4.016C232.426 4.464 232.384 4.96 232.384 5.504V7.328C232.384 7.872 232.426 8.368 232.512 8.816C232.608 9.264 232.752 9.65333 232.944 9.984C233.136 10.3147 233.386 10.5707 233.696 10.752C234.005 10.9333 234.378 11.024 234.816 11.024ZM248.137 12H240.809V10.624L244.457 7.264C244.98 6.784 245.417 6.27733 245.769 5.744C246.121 5.2 246.297 4.656 246.297 4.112V3.92C246.297 3.30133 246.127 2.8 245.785 2.416C245.444 2.032 244.927 1.84 244.233 1.84C243.892 1.84 243.593 1.888 243.337 1.984C243.081 2.08 242.857 2.21333 242.665 2.384C242.484 2.55467 242.329 2.75733 242.201 2.992C242.084 3.216 241.988 3.46133 241.913 3.728L240.713 3.264C240.82 2.93333 240.964 2.61333 241.145 2.304C241.337 1.984 241.572 1.70133 241.849 1.456C242.137 1.21067 242.479 1.01333 242.873 0.863999C243.279 0.714666 243.753 0.639999 244.297 0.639999C244.841 0.639999 245.327 0.719999 245.753 0.879999C246.18 1.04 246.537 1.264 246.825 1.552C247.113 1.84 247.332 2.18133 247.481 2.576C247.641 2.97067 247.721 3.408 247.721 3.888C247.721 4.32533 247.657 4.73067 247.529 5.104C247.412 5.47733 247.247 5.83467 247.033 6.176C246.82 6.50667 246.559 6.832 246.249 7.152C245.951 7.472 245.625 7.792 245.273 8.112L242.265 10.816H248.137V12ZM250.611 12V10.816H253.731V1.824H253.619L250.803 4.448L250.019 3.6L252.979 0.832H255.075V10.816H257.955V12H250.611ZM8.48 33.944H2.832V39H1.488V27.832H2.832V32.76H8.48V27.832H9.824V39H8.48V33.944ZM18.6725 39C18.1925 39 17.8458 38.872 17.6325 38.616C17.4298 38.36 17.3018 38.04 17.2485 37.656H17.1685C16.9872 38.168 16.6885 38.552 16.2725 38.808C15.8565 39.064 15.3605 39.192 14.7845 39.192C13.9098 39.192 13.2272 38.968 12.7365 38.52C12.2565 38.072 12.0165 37.464 12.0165 36.696C12.0165 35.9173 12.2992 35.32 12.8645 34.904C13.4405 34.488 14.3312 34.28 15.5365 34.28H17.1685V33.464C17.1685 32.8773 17.0085 32.4293 16.6885 32.12C16.3685 31.8107 15.8778 31.656 15.2165 31.656C14.7152 31.656 14.2938 31.768 13.9525 31.992C13.6218 32.216 13.3445 32.5147 13.1205 32.888L12.3525 32.168C12.5765 31.72 12.9338 31.3413 13.4245 31.032C13.9152 30.712 14.5338 30.552 15.2805 30.552C16.2832 30.552 17.0618 30.7973 17.6165 31.288C18.1712 31.7787 18.4485 32.4613 18.4485 33.336V37.88H19.3925V39H18.6725ZM14.9925 38.104C15.3125 38.104 15.6058 38.0667 15.8725 37.992C16.1392 37.9173 16.3685 37.8107 16.5605 37.672C16.7525 37.5333 16.9018 37.3733 17.0085 37.192C17.1152 37.0107 17.1685 36.8133 17.1685 36.6V35.24H15.4725C14.7365 35.24 14.1978 35.3467 13.8565 35.56C13.5258 35.7733 13.3605 36.0827 13.3605 36.488V36.824C13.3605 37.2293 13.5045 37.544 13.7925 37.768C14.0912 37.992 14.4912 38.104 14.9925 38.104ZM22.9184 39L20.0224 30.744H21.3024L22.7424 34.84L23.6384 37.656H23.7184L24.6144 34.84L26.0864 30.744H27.3184L24.4064 39H22.9184ZM31.9484 39.192C31.383 39.192 30.871 39.0907 30.4124 38.888C29.9644 38.6853 29.575 38.3973 29.2444 38.024C28.9244 37.64 28.6737 37.1867 28.4924 36.664C28.3217 36.1307 28.2364 35.5333 28.2364 34.872C28.2364 34.2213 28.3217 33.6293 28.4924 33.096C28.6737 32.5627 28.9244 32.1093 29.2444 31.736C29.575 31.352 29.9644 31.0587 30.4124 30.856C30.871 30.6533 31.383 30.552 31.9484 30.552C32.503 30.552 32.999 30.6533 33.4364 30.856C33.8737 31.0587 34.247 31.3413 34.5564 31.704C34.8657 32.056 35.1004 32.4773 35.2604 32.968C35.431 33.4587 35.5164 33.9973 35.5164 34.584V35.192H29.5804V35.576C29.5804 35.928 29.6337 36.2587 29.7404 36.568C29.8577 36.8667 30.0177 37.128 30.2204 37.352C30.4337 37.576 30.6897 37.752 30.9884 37.88C31.2977 38.008 31.6444 38.072 32.0284 38.072C32.551 38.072 33.0044 37.9493 33.3884 37.704C33.783 37.4587 34.087 37.1067 34.3004 36.648L35.2124 37.304C34.9457 37.8693 34.5297 38.328 33.9644 38.68C33.399 39.0213 32.727 39.192 31.9484 39.192ZM31.9484 31.624C31.5964 31.624 31.2764 31.688 30.9884 31.816C30.7004 31.9333 30.4497 32.104 30.2364 32.328C30.0337 32.552 29.8737 32.8187 29.7564 33.128C29.639 33.4267 29.5804 33.7573 29.5804 34.12V34.232H34.1404V34.056C34.1404 33.32 33.9377 32.7333 33.5324 32.296C33.1377 31.848 32.6097 31.624 31.9484 31.624ZM47.4069 39C46.9269 39 46.5802 38.872 46.3669 38.616C46.1642 38.36 46.0362 38.04 45.9829 37.656H45.9029C45.7215 38.168 45.4229 38.552 45.0069 38.808C44.5909 39.064 44.0949 39.192 43.5189 39.192C42.6442 39.192 41.9615 38.968 41.4709 38.52C40.9909 38.072 40.7509 37.464 40.7509 36.696C40.7509 35.9173 41.0335 35.32 41.5989 34.904C42.1749 34.488 43.0655 34.28 44.2709 34.28H45.9029V33.464C45.9029 32.8773 45.7429 32.4293 45.4229 32.12C45.1029 31.8107 44.6122 31.656 43.9509 31.656C43.4495 31.656 43.0282 31.768 42.6869 31.992C42.3562 32.216 42.0789 32.5147 41.8549 32.888L41.0869 32.168C41.3109 31.72 41.6682 31.3413 42.1589 31.032C42.6495 30.712 43.2682 30.552 44.0149 30.552C45.0175 30.552 45.7962 30.7973 46.3509 31.288C46.9055 31.7787 47.1829 32.4613 47.1829 33.336V37.88H48.1269V39H47.4069ZM43.7269 38.104C44.0469 38.104 44.3402 38.0667 44.6069 37.992C44.8735 37.9173 45.1029 37.8107 45.2949 37.672C45.4869 37.5333 45.6362 37.3733 45.7429 37.192C45.8495 37.0107 45.9029 36.8133 45.9029 36.6V35.24H44.2069C43.4709 35.24 42.9322 35.3467 42.5909 35.56C42.2602 35.7733 42.0949 36.0827 42.0949 36.488V36.824C42.0949 37.2293 42.2389 37.544 42.5269 37.768C42.8255 37.992 43.2255 38.104 43.7269 38.104ZM49.9538 39V30.744H51.2338V32.088H51.2978C51.5004 31.6187 51.7831 31.2453 52.1458 30.968C52.5191 30.6907 53.0151 30.552 53.6338 30.552C54.4871 30.552 55.1591 30.8293 55.6498 31.384C56.1511 31.928 56.4018 32.7013 56.4018 33.704V39H55.1218V33.928C55.1218 32.4453 54.4978 31.704 53.2498 31.704C52.9938 31.704 52.7431 31.736 52.4978 31.8C52.2631 31.864 52.0498 31.96 51.8578 32.088C51.6658 32.216 51.5111 32.3813 51.3938 32.584C51.2871 32.776 51.2338 33.0053 51.2338 33.272V39H49.9538ZM64.0105 30.744H65.2745L61.5785 40.92C61.4825 41.1653 61.3865 41.368 61.2905 41.528C61.1945 41.6987 61.0772 41.832 60.9385 41.928C60.7998 42.024 60.6238 42.0933 60.4105 42.136C60.2078 42.1787 59.9572 42.2 59.6585 42.2H59.0025V41.08H60.2985L60.9225 39.32L57.8345 30.744H59.1145L61.0985 36.36L61.4825 37.704H61.5625L62.0105 36.36L64.0105 30.744ZM70.6881 30.744H71.9681V32.088H72.0321C72.2455 31.5653 72.5548 31.1813 72.9601 30.936C73.3761 30.68 73.8721 30.552 74.4481 30.552C74.9601 30.552 75.4241 30.6533 75.8401 30.856C76.2561 31.0587 76.6081 31.3467 76.8961 31.72C77.1948 32.0933 77.4188 32.5467 77.5681 33.08C77.7281 33.6133 77.8081 34.2107 77.8081 34.872C77.8081 35.5333 77.7281 36.1307 77.5681 36.664C77.4188 37.1973 77.1948 37.6507 76.8961 38.024C76.6081 38.3973 76.2561 38.6853 75.8401 38.888C75.4241 39.0907 74.9601 39.192 74.4481 39.192C73.3281 39.192 72.5228 38.68 72.0321 37.656H71.9681V42.2H70.6881V30.744ZM74.0961 38.04C74.8215 38.04 75.3921 37.816 75.8081 37.368C76.2241 36.9093 76.4321 36.312 76.4321 35.576V34.168C76.4321 33.432 76.2241 32.84 75.8081 32.392C75.3921 31.9333 74.8215 31.704 74.0961 31.704C73.8081 31.704 73.5308 31.7467 73.2641 31.832C73.0081 31.9067 72.7841 32.0133 72.5921 32.152C72.4001 32.2907 72.2455 32.4613 72.1281 32.664C72.0215 32.856 71.9681 33.064 71.9681 33.288V36.36C71.9681 36.6267 72.0215 36.8667 72.1281 37.08C72.2455 37.2827 72.4001 37.4587 72.5921 37.608C72.7841 37.7467 73.0081 37.8533 73.2641 37.928C73.5308 38.0027 73.8081 38.04 74.0961 38.04ZM79.9694 39V30.744H81.2494V32.264H81.3294C81.4787 31.8693 81.7454 31.5173 82.1294 31.208C82.5134 30.8987 83.0414 30.744 83.7134 30.744H84.2094V32.024H83.4574C82.764 32.024 82.22 32.1573 81.8254 32.424C81.4414 32.68 81.2494 33.0053 81.2494 33.4V39H79.9694ZM88.8863 39.192C88.3316 39.192 87.8249 39.0907 87.3663 38.888C86.9076 38.6853 86.5129 38.3973 86.1823 38.024C85.8623 37.64 85.6116 37.1867 85.4303 36.664C85.2489 36.1307 85.1583 35.5333 85.1583 34.872C85.1583 34.2213 85.2489 33.6293 85.4303 33.096C85.6116 32.5627 85.8623 32.1093 86.1823 31.736C86.5129 31.352 86.9076 31.0587 87.3663 30.856C87.8249 30.6533 88.3316 30.552 88.8863 30.552C89.4409 30.552 89.9423 30.6533 90.3903 30.856C90.8489 31.0587 91.2436 31.352 91.5743 31.736C91.9049 32.1093 92.1609 32.5627 92.3423 33.096C92.5236 33.6293 92.6143 34.2213 92.6143 34.872C92.6143 35.5333 92.5236 36.1307 92.3423 36.664C92.1609 37.1867 91.9049 37.64 91.5743 38.024C91.2436 38.3973 90.8489 38.6853 90.3903 38.888C89.9423 39.0907 89.4409 39.192 88.8863 39.192ZM88.8863 38.056C89.5796 38.056 90.1449 37.8427 90.5823 37.416C91.0196 36.9893 91.2383 36.3387 91.2383 35.464V34.28C91.2383 33.4053 91.0196 32.7547 90.5823 32.328C90.1449 31.9013 89.5796 31.688 88.8863 31.688C88.1929 31.688 87.6276 31.9013 87.1903 32.328C86.7529 32.7547 86.5343 33.4053 86.5343 34.28V35.464C86.5343 36.3387 86.7529 36.9893 87.1903 37.416C87.6276 37.8427 88.1929 38.056 88.8863 38.056ZM94.7194 27.16H95.9994V32.088H96.0634C96.2767 31.5653 96.586 31.1813 96.9914 30.936C97.4074 30.68 97.9034 30.552 98.4794 30.552C98.9914 30.552 99.4554 30.6533 99.8714 30.856C100.287 31.0587 100.639 31.3467 100.927 31.72C101.226 32.0933 101.45 32.5467 101.599 33.08C101.759 33.6133 101.839 34.2107 101.839 34.872C101.839 35.5333 101.759 36.1307 101.599 36.664C101.45 37.1973 101.226 37.6507 100.927 38.024C100.639 38.3973 100.287 38.6853 99.8714 38.888C99.4554 39.0907 98.9914 39.192 98.4794 39.192C97.3594 39.192 96.554 38.68 96.0634 37.656H95.9994V39H94.7194V27.16ZM98.1274 38.04C98.8527 38.04 99.4234 37.816 99.8394 37.368C100.255 36.9093 100.463 36.312 100.463 35.576V34.168C100.463 33.432 100.255 32.84 99.8394 32.392C99.4234 31.9333 98.8527 31.704 98.1274 31.704C97.8394 31.704 97.562 31.7467 97.2954 31.832C97.0394 31.9067 96.8154 32.0133 96.6234 32.152C96.4314 32.2907 96.2767 32.4613 96.1594 32.664C96.0527 32.856 95.9994 33.064 95.9994 33.288V36.36C95.9994 36.6267 96.0527 36.8667 96.1594 37.08C96.2767 37.2827 96.4314 37.4587 96.6234 37.608C96.8154 37.7467 97.0394 37.8533 97.2954 37.928C97.562 38.0027 97.8394 38.04 98.1274 38.04ZM105.361 39C104.913 39 104.571 38.8773 104.337 38.632C104.113 38.376 104.001 38.056 104.001 37.672V27.16H105.281V37.88H106.497V39H105.361ZM111.464 39.192C110.899 39.192 110.387 39.0907 109.928 38.888C109.48 38.6853 109.091 38.3973 108.76 38.024C108.44 37.64 108.189 37.1867 108.008 36.664C107.837 36.1307 107.752 35.5333 107.752 34.872C107.752 34.2213 107.837 33.6293 108.008 33.096C108.189 32.5627 108.44 32.1093 108.76 31.736C109.091 31.352 109.48 31.0587 109.928 30.856C110.387 30.6533 110.899 30.552 111.464 30.552C112.019 30.552 112.515 30.6533 112.952 30.856C113.389 31.0587 113.763 31.3413 114.072 31.704C114.381 32.056 114.616 32.4773 114.776 32.968C114.947 33.4587 115.032 33.9973 115.032 34.584V35.192H109.096V35.576C109.096 35.928 109.149 36.2587 109.256 36.568C109.373 36.8667 109.533 37.128 109.736 37.352C109.949 37.576 110.205 37.752 110.504 37.88C110.813 38.008 111.16 38.072 111.544 38.072C112.067 38.072 112.52 37.9493 112.904 37.704C113.299 37.4587 113.603 37.1067 113.816 36.648L114.728 37.304C114.461 37.8693 114.045 38.328 113.48 38.68C112.915 39.0213 112.243 39.192 111.464 39.192ZM111.464 31.624C111.112 31.624 110.792 31.688 110.504 31.816C110.216 31.9333 109.965 32.104 109.752 32.328C109.549 32.552 109.389 32.8187 109.272 33.128C109.155 33.4267 109.096 33.7573 109.096 34.12V34.232H113.656V34.056C113.656 33.32 113.453 32.7333 113.048 32.296C112.653 31.848 112.125 31.624 111.464 31.624ZM117.141 39V30.744H118.421V32.088H118.485C118.581 31.8747 118.688 31.6773 118.805 31.496C118.933 31.304 119.083 31.1387 119.253 31C119.435 30.8613 119.643 30.7547 119.877 30.68C120.112 30.5947 120.389 30.552 120.709 30.552C121.253 30.552 121.755 30.6853 122.213 30.952C122.672 31.208 123.013 31.6347 123.237 32.232H123.269C123.419 31.784 123.696 31.3947 124.101 31.064C124.517 30.7227 125.077 30.552 125.781 30.552C126.624 30.552 127.28 30.8293 127.749 31.384C128.229 31.928 128.469 32.7013 128.469 33.704V39H127.189V33.928C127.189 33.192 127.045 32.6373 126.757 32.264C126.469 31.8907 126.011 31.704 125.381 31.704C125.125 31.704 124.88 31.736 124.645 31.8C124.421 31.864 124.219 31.96 124.037 32.088C123.856 32.216 123.712 32.3813 123.605 32.584C123.499 32.776 123.445 33.0053 123.445 33.272V39H122.165V33.928C122.165 33.192 122.021 32.6373 121.733 32.264C121.445 31.8907 120.997 31.704 120.389 31.704C120.133 31.704 119.888 31.736 119.653 31.8C119.419 31.864 119.211 31.96 119.029 32.088C118.848 32.216 118.699 32.3813 118.581 32.584C118.475 32.776 118.421 33.0053 118.421 33.272V39H117.141ZM133.59 39.192C132.822 39.192 132.177 39.048 131.654 38.76C131.142 38.4613 130.699 38.0667 130.326 37.576L131.238 36.84C131.558 37.2453 131.915 37.56 132.31 37.784C132.705 37.9973 133.163 38.104 133.686 38.104C134.23 38.104 134.651 37.9867 134.95 37.752C135.259 37.5173 135.414 37.1867 135.414 36.76C135.414 36.44 135.307 36.168 135.094 35.944C134.891 35.7093 134.518 35.5493 133.974 35.464L133.318 35.368C132.934 35.3147 132.582 35.2347 132.262 35.128C131.942 35.0107 131.659 34.8613 131.414 34.68C131.179 34.488 130.993 34.2533 130.854 33.976C130.726 33.6987 130.662 33.368 130.662 32.984C130.662 32.5787 130.737 32.2267 130.886 31.928C131.035 31.6187 131.238 31.3627 131.494 31.16C131.761 30.9573 132.075 30.808 132.438 30.712C132.801 30.6053 133.19 30.552 133.606 30.552C134.278 30.552 134.838 30.6693 135.286 30.904C135.745 31.1387 136.145 31.464 136.486 31.88L135.638 32.648C135.457 32.392 135.19 32.1627 134.838 31.96C134.486 31.7467 134.043 31.64 133.51 31.64C132.977 31.64 132.571 31.7573 132.294 31.992C132.027 32.216 131.894 32.5253 131.894 32.92C131.894 33.3253 132.027 33.6187 132.294 33.8C132.571 33.9813 132.966 34.1147 133.478 34.2L134.118 34.296C135.035 34.4347 135.686 34.7013 136.07 35.096C136.454 35.48 136.646 35.9867 136.646 36.616C136.646 37.416 136.374 38.0453 135.83 38.504C135.286 38.9627 134.539 39.192 133.59 39.192ZM140.411 35.672V33.048C141.286 33.0053 141.968 32.792 142.459 32.408C142.96 32.024 143.211 31.496 143.211 30.824V30.6C143.211 30.056 143.04 29.624 142.699 29.304C142.358 28.9733 141.899 28.808 141.323 28.808C140.704 28.808 140.208 28.984 139.835 29.336C139.472 29.688 139.227 30.136 139.099 30.68L137.915 30.232C138.011 29.8907 138.15 29.5653 138.331 29.256C138.523 28.936 138.758 28.6587 139.035 28.424C139.323 28.1787 139.659 27.9867 140.043 27.848C140.427 27.7093 140.87 27.64 141.371 27.64C142.363 27.64 143.147 27.912 143.723 28.456C144.299 29 144.587 29.736 144.587 30.664C144.587 31.176 144.496 31.624 144.315 32.008C144.144 32.3813 143.92 32.7013 143.643 32.968C143.366 33.2347 143.051 33.448 142.699 33.608C142.347 33.768 141.995 33.88 141.643 33.944V35.672H140.411ZM141.035 39.192C140.694 39.192 140.443 39.1067 140.283 38.936C140.134 38.7653 140.059 38.5413 140.059 38.264V38.056C140.059 37.7787 140.134 37.5547 140.283 37.384C140.443 37.2133 140.694 37.128 141.035 37.128C141.376 37.128 141.622 37.2133 141.771 37.384C141.931 37.5547 142.011 37.7787 142.011 38.056V38.264C142.011 38.5413 141.931 38.7653 141.771 38.936C141.622 39.1067 141.376 39.192 141.035 39.192ZM154.377 39.192C152.958 39.192 151.854 38.712 151.065 37.752C150.276 36.7813 149.881 35.3573 149.881 33.48C149.881 31.6027 150.276 30.1627 151.065 29.16C151.854 28.1467 152.958 27.64 154.377 27.64C155.316 27.64 156.1 27.8533 156.729 28.28C157.369 28.7067 157.865 29.3093 158.217 30.088L157.129 30.744C156.905 30.168 156.564 29.7093 156.105 29.368C155.646 29.016 155.07 28.84 154.377 28.84C153.897 28.84 153.465 28.9307 153.081 29.112C152.708 29.2933 152.388 29.5547 152.121 29.896C151.865 30.2267 151.668 30.6267 151.529 31.096C151.39 31.5547 151.321 32.072 151.321 32.648V34.312C151.321 35.464 151.588 36.3653 152.121 37.016C152.654 37.6667 153.406 37.992 154.377 37.992C155.092 37.992 155.689 37.8107 156.169 37.448C156.649 37.0747 157.001 36.584 157.225 35.976L158.297 36.648C157.945 37.4373 157.438 38.0613 156.777 38.52C156.116 38.968 155.316 39.192 154.377 39.192ZM163.371 39.192C162.816 39.192 162.309 39.0907 161.851 38.888C161.392 38.6853 160.997 38.3973 160.667 38.024C160.347 37.64 160.096 37.1867 159.915 36.664C159.733 36.1307 159.643 35.5333 159.643 34.872C159.643 34.2213 159.733 33.6293 159.915 33.096C160.096 32.5627 160.347 32.1093 160.667 31.736C160.997 31.352 161.392 31.0587 161.851 30.856C162.309 30.6533 162.816 30.552 163.371 30.552C163.925 30.552 164.427 30.6533 164.875 30.856C165.333 31.0587 165.728 31.352 166.059 31.736C166.389 32.1093 166.645 32.5627 166.827 33.096C167.008 33.6293 167.099 34.2213 167.099 34.872C167.099 35.5333 167.008 36.1307 166.827 36.664C166.645 37.1867 166.389 37.64 166.059 38.024C165.728 38.3973 165.333 38.6853 164.875 38.888C164.427 39.0907 163.925 39.192 163.371 39.192ZM163.371 38.056C164.064 38.056 164.629 37.8427 165.067 37.416C165.504 36.9893 165.723 36.3387 165.723 35.464V34.28C165.723 33.4053 165.504 32.7547 165.067 32.328C164.629 31.9013 164.064 31.688 163.371 31.688C162.677 31.688 162.112 31.9013 161.675 32.328C161.237 32.7547 161.019 33.4053 161.019 34.28V35.464C161.019 36.3387 161.237 36.9893 161.675 37.416C162.112 37.8427 162.677 38.056 163.371 38.056ZM169.204 39V30.744H170.484V32.088H170.548C170.75 31.6187 171.033 31.2453 171.396 30.968C171.769 30.6907 172.265 30.552 172.884 30.552C173.737 30.552 174.409 30.8293 174.9 31.384C175.401 31.928 175.652 32.7013 175.652 33.704V39H174.372V33.928C174.372 32.4453 173.748 31.704 172.5 31.704C172.244 31.704 171.993 31.736 171.748 31.8C171.513 31.864 171.3 31.96 171.108 32.088C170.916 32.216 170.761 32.3813 170.644 32.584C170.537 32.776 170.484 33.0053 170.484 33.272V39H169.204ZM180.122 39C179.674 39 179.332 38.8773 179.098 38.632C178.874 38.376 178.762 38.0453 178.762 37.64V31.864H177.402V30.744H178.17C178.447 30.744 178.634 30.6907 178.73 30.584C178.836 30.4667 178.89 30.2693 178.89 29.992V28.456H180.042V30.744H181.85V31.864H180.042V37.88H181.722V39H180.122ZM189.907 39C189.427 39 189.08 38.872 188.867 38.616C188.664 38.36 188.536 38.04 188.483 37.656H188.403C188.222 38.168 187.923 38.552 187.507 38.808C187.091 39.064 186.595 39.192 186.019 39.192C185.144 39.192 184.462 38.968 183.971 38.52C183.491 38.072 183.251 37.464 183.251 36.696C183.251 35.9173 183.534 35.32 184.099 34.904C184.675 34.488 185.566 34.28 186.771 34.28H188.403V33.464C188.403 32.8773 188.243 32.4293 187.923 32.12C187.603 31.8107 187.112 31.656 186.451 31.656C185.95 31.656 185.528 31.768 185.187 31.992C184.856 32.216 184.579 32.5147 184.355 32.888L183.587 32.168C183.811 31.72 184.168 31.3413 184.659 31.032C185.15 30.712 185.768 30.552 186.515 30.552C187.518 30.552 188.296 30.7973 188.851 31.288C189.406 31.7787 189.683 32.4613 189.683 33.336V37.88H190.627V39H189.907ZM186.227 38.104C186.547 38.104 186.84 38.0667 187.107 37.992C187.374 37.9173 187.603 37.8107 187.795 37.672C187.987 37.5333 188.136 37.3733 188.243 37.192C188.35 37.0107 188.403 36.8133 188.403 36.6V35.24H186.707C185.971 35.24 185.432 35.3467 185.091 35.56C184.76 35.7733 184.595 36.0827 184.595 36.488V36.824C184.595 37.2293 184.739 37.544 185.027 37.768C185.326 37.992 185.726 38.104 186.227 38.104ZM195.526 39.192C194.95 39.192 194.432 39.0907 193.974 38.888C193.515 38.6853 193.126 38.3973 192.806 38.024C192.496 37.6507 192.256 37.1973 192.086 36.664C191.926 36.1307 191.846 35.5333 191.846 34.872C191.846 34.2107 191.926 33.6133 192.086 33.08C192.256 32.5467 192.496 32.0933 192.806 31.72C193.126 31.3467 193.515 31.0587 193.974 30.856C194.432 30.6533 194.95 30.552 195.526 30.552C196.347 30.552 197.003 30.7333 197.494 31.096C197.995 31.448 198.368 31.912 198.614 32.488L197.542 33.032C197.392 32.6053 197.147 32.2747 196.806 32.04C196.464 31.8053 196.038 31.688 195.526 31.688C195.142 31.688 194.806 31.752 194.518 31.88C194.23 31.9973 193.99 32.168 193.798 32.392C193.606 32.6053 193.462 32.8667 193.366 33.176C193.27 33.4747 193.222 33.8053 193.222 34.168V35.576C193.222 36.3013 193.414 36.8987 193.798 37.368C194.192 37.8267 194.768 38.056 195.526 38.056C196.56 38.056 197.307 37.576 197.766 36.616L198.694 37.24C198.427 37.8373 198.027 38.312 197.494 38.664C196.971 39.016 196.315 39.192 195.526 39.192ZM202.325 39C201.877 39 201.535 38.8773 201.301 38.632C201.077 38.376 200.965 38.0453 200.965 37.64V31.864H199.605V30.744H200.373C200.65 30.744 200.837 30.6907 200.933 30.584C201.039 30.4667 201.093 30.2693 201.093 29.992V28.456H202.245V30.744H204.053V31.864H202.245V37.88H203.925V39H202.325ZM214.979 37.656H214.915C214.83 37.848 214.723 38.04 214.595 38.232C214.478 38.4133 214.329 38.5787 214.147 38.728C213.966 38.8667 213.747 38.9787 213.491 39.064C213.235 39.1493 212.937 39.192 212.595 39.192C211.742 39.192 211.065 38.92 210.563 38.376C210.062 37.8213 209.811 37.0427 209.811 36.04V30.744H211.091V35.816C211.091 37.2987 211.721 38.04 212.979 38.04C213.235 38.04 213.481 38.008 213.715 37.944C213.961 37.88 214.174 37.784 214.355 37.656C214.547 37.528 214.697 37.368 214.803 37.176C214.921 36.9733 214.979 36.7333 214.979 36.456V30.744H216.259V39H214.979V37.656ZM221.465 39.192C220.697 39.192 220.052 39.048 219.529 38.76C219.017 38.4613 218.574 38.0667 218.201 37.576L219.113 36.84C219.433 37.2453 219.79 37.56 220.185 37.784C220.58 37.9973 221.038 38.104 221.561 38.104C222.105 38.104 222.526 37.9867 222.825 37.752C223.134 37.5173 223.289 37.1867 223.289 36.76C223.289 36.44 223.182 36.168 222.969 35.944C222.766 35.7093 222.393 35.5493 221.849 35.464L221.193 35.368C220.809 35.3147 220.457 35.2347 220.137 35.128C219.817 35.0107 219.534 34.8613 219.289 34.68C219.054 34.488 218.868 34.2533 218.729 33.976C218.601 33.6987 218.537 33.368 218.537 32.984C218.537 32.5787 218.612 32.2267 218.761 31.928C218.91 31.6187 219.113 31.3627 219.369 31.16C219.636 30.9573 219.95 30.808 220.313 30.712C220.676 30.6053 221.065 30.552 221.481 30.552C222.153 30.552 222.713 30.6693 223.161 30.904C223.62 31.1387 224.02 31.464 224.361 31.88L223.513 32.648C223.332 32.392 223.065 32.1627 222.713 31.96C222.361 31.7467 221.918 31.64 221.385 31.64C220.852 31.64 220.446 31.7573 220.169 31.992C219.902 32.216 219.769 32.5253 219.769 32.92C219.769 33.3253 219.902 33.6187 220.169 33.8C220.446 33.9813 220.841 34.1147 221.353 34.2L221.993 34.296C222.91 34.4347 223.561 34.7013 223.945 35.096C224.329 35.48 224.521 35.9867 224.521 36.616C224.521 37.416 224.249 38.0453 223.705 38.504C223.161 38.9627 222.414 39.192 221.465 39.192ZM232.387 39L229.491 30.744H230.771L232.211 34.84L233.107 37.656H233.187L234.083 34.84L235.555 30.744H236.787L233.875 39H232.387ZM239.078 28.808C238.801 28.808 238.598 28.744 238.47 28.616C238.353 28.4773 238.294 28.3013 238.294 28.088V27.88C238.294 27.6667 238.353 27.496 238.47 27.368C238.598 27.2293 238.801 27.16 239.078 27.16C239.355 27.16 239.553 27.2293 239.67 27.368C239.798 27.496 239.862 27.6667 239.862 27.88V28.088C239.862 28.3013 239.798 28.4773 239.67 28.616C239.553 28.744 239.355 28.808 239.078 28.808ZM238.438 30.744H239.718V39H238.438V30.744ZM248.438 39C247.958 39 247.611 38.872 247.398 38.616C247.195 38.36 247.067 38.04 247.014 37.656H246.934C246.753 38.168 246.454 38.552 246.038 38.808C245.622 39.064 245.126 39.192 244.55 39.192C243.675 39.192 242.993 38.968 242.502 38.52C242.022 38.072 241.782 37.464 241.782 36.696C241.782 35.9173 242.065 35.32 242.63 34.904C243.206 34.488 244.097 34.28 245.302 34.28H246.934V33.464C246.934 32.8773 246.774 32.4293 246.454 32.12C246.134 31.8107 245.643 31.656 244.982 31.656C244.481 31.656 244.059 31.768 243.718 31.992C243.387 32.216 243.11 32.5147 242.886 32.888L242.118 32.168C242.342 31.72 242.699 31.3413 243.19 31.032C243.681 30.712 244.299 30.552 245.046 30.552C246.049 30.552 246.827 30.7973 247.382 31.288C247.937 31.7787 248.214 32.4613 248.214 33.336V37.88H249.158V39H248.438ZM244.758 38.104C245.078 38.104 245.371 38.0667 245.638 37.992C245.905 37.9173 246.134 37.8107 246.326 37.672C246.518 37.5333 246.667 37.3733 246.774 37.192C246.881 37.0107 246.934 36.8133 246.934 36.6V35.24H245.238C244.502 35.24 243.963 35.3467 243.622 35.56C243.291 35.7733 243.126 36.0827 243.126 36.488V36.824C243.126 37.2293 243.27 37.544 243.558 37.768C243.857 37.992 244.257 38.104 244.758 38.104ZM257.246 39.192C256.478 39.192 255.833 39.048 255.31 38.76C254.798 38.4613 254.356 38.0667 253.982 37.576L254.894 36.84C255.214 37.2453 255.572 37.56 255.966 37.784C256.361 37.9973 256.82 38.104 257.342 38.104C257.886 38.104 258.308 37.9867 258.606 37.752C258.916 37.5173 259.07 37.1867 259.07 36.76C259.07 36.44 258.964 36.168 258.75 35.944C258.548 35.7093 258.174 35.5493 257.63 35.464L256.974 35.368C256.59 35.3147 256.238 35.2347 255.918 35.128C255.598 35.0107 255.316 34.8613 255.07 34.68C254.836 34.488 254.649 34.2533 254.51 33.976C254.382 33.6987 254.318 33.368 254.318 32.984C254.318 32.5787 254.393 32.2267 254.542 31.928C254.692 31.6187 254.894 31.3627 255.15 31.16C255.417 30.9573 255.732 30.808 256.094 30.712C256.457 30.6053 256.846 30.552 257.262 30.552C257.934 30.552 258.494 30.6693 258.942 30.904C259.401 31.1387 259.801 31.464 260.142 31.88L259.294 32.648C259.113 32.392 258.846 32.1627 258.494 31.96C258.142 31.7467 257.7 31.64 257.166 31.64C256.633 31.64 256.228 31.7573 255.95 31.992C255.684 32.216 255.55 32.5253 255.55 32.92C255.55 33.3253 255.684 33.6187 255.95 33.8C256.228 33.9813 256.622 34.1147 257.134 34.2L257.774 34.296C258.692 34.4347 259.342 34.7013 259.726 35.096C260.11 35.48 260.302 35.9867 260.302 36.616C260.302 37.416 260.03 38.0453 259.486 38.504C258.942 38.9627 258.196 39.192 257.246 39.192ZM265.683 39.192C265.128 39.192 264.622 39.0907 264.163 38.888C263.704 38.6853 263.31 38.3973 262.979 38.024C262.659 37.64 262.408 37.1867 262.227 36.664C262.046 36.1307 261.955 35.5333 261.955 34.872C261.955 34.2213 262.046 33.6293 262.227 33.096C262.408 32.5627 262.659 32.1093 262.979 31.736C263.31 31.352 263.704 31.0587 264.163 30.856C264.622 30.6533 265.128 30.552 265.683 30.552C266.238 30.552 266.739 30.6533 267.187 30.856C267.646 31.0587 268.04 31.352 268.371 31.736C268.702 32.1093 268.958 32.5627 269.139 33.096C269.32 33.6293 269.411 34.2213 269.411 34.872C269.411 35.5333 269.32 36.1307 269.139 36.664C268.958 37.1867 268.702 37.64 268.371 38.024C268.04 38.3973 267.646 38.6853 267.187 38.888C266.739 39.0907 266.238 39.192 265.683 39.192ZM265.683 38.056C266.376 38.056 266.942 37.8427 267.379 37.416C267.816 36.9893 268.035 36.3387 268.035 35.464V34.28C268.035 33.4053 267.816 32.7547 267.379 32.328C266.942 31.9013 266.376 31.688 265.683 31.688C264.99 31.688 264.424 31.9013 263.987 32.328C263.55 32.7547 263.331 33.4053 263.331 34.28V35.464C263.331 36.3387 263.55 36.9893 263.987 37.416C264.424 37.8427 264.99 38.056 265.683 38.056ZM274.588 39.192C274.012 39.192 273.495 39.0907 273.036 38.888C272.578 38.6853 272.188 38.3973 271.868 38.024C271.559 37.6507 271.319 37.1973 271.148 36.664C270.988 36.1307 270.908 35.5333 270.908 34.872C270.908 34.2107 270.988 33.6133 271.148 33.08C271.319 32.5467 271.559 32.0933 271.868 31.72C272.188 31.3467 272.578 31.0587 273.036 30.856C273.495 30.6533 274.012 30.552 274.588 30.552C275.41 30.552 276.066 30.7333 276.556 31.096C277.058 31.448 277.431 31.912 277.676 32.488L276.604 33.032C276.455 32.6053 276.21 32.2747 275.868 32.04C275.527 31.8053 275.1 31.688 274.588 31.688C274.204 31.688 273.868 31.752 273.58 31.88C273.292 31.9973 273.052 32.168 272.86 32.392C272.668 32.6053 272.524 32.8667 272.428 33.176C272.332 33.4747 272.284 33.8053 272.284 34.168V35.576C272.284 36.3013 272.476 36.8987 272.86 37.368C273.255 37.8267 273.831 38.056 274.588 38.056C275.623 38.056 276.37 37.576 276.828 36.616L277.756 37.24C277.49 37.8373 277.09 38.312 276.556 38.664C276.034 39.016 275.378 39.192 274.588 39.192ZM280.203 28.808C279.926 28.808 279.723 28.744 279.595 28.616C279.478 28.4773 279.419 28.3013 279.419 28.088V27.88C279.419 27.6667 279.478 27.496 279.595 27.368C279.723 27.2293 279.926 27.16 280.203 27.16C280.48 27.16 280.678 27.2293 280.795 27.368C280.923 27.496 280.987 27.6667 280.987 27.88V28.088C280.987 28.3013 280.923 28.4773 280.795 28.616C280.678 28.744 280.48 28.808 280.203 28.808ZM279.563 30.744H280.843V39H279.563V30.744ZM289.563 39C289.083 39 288.736 38.872 288.523 38.616C288.32 38.36 288.192 38.04 288.139 37.656H288.059C287.878 38.168 287.579 38.552 287.163 38.808C286.747 39.064 286.251 39.192 285.675 39.192C284.8 39.192 284.118 38.968 283.627 38.52C283.147 38.072 282.907 37.464 282.907 36.696C282.907 35.9173 283.19 35.32 283.755 34.904C284.331 34.488 285.222 34.28 286.427 34.28H288.059V33.464C288.059 32.8773 287.899 32.4293 287.579 32.12C287.259 31.8107 286.768 31.656 286.107 31.656C285.606 31.656 285.184 31.768 284.843 31.992C284.512 32.216 284.235 32.5147 284.011 32.888L283.243 32.168C283.467 31.72 283.824 31.3413 284.315 31.032C284.806 30.712 285.424 30.552 286.171 30.552C287.174 30.552 287.952 30.7973 288.507 31.288C289.062 31.7787 289.339 32.4613 289.339 33.336V37.88H290.283V39H289.563ZM285.883 38.104C286.203 38.104 286.496 38.0667 286.763 37.992C287.03 37.9173 287.259 37.8107 287.451 37.672C287.643 37.5333 287.792 37.3733 287.899 37.192C288.006 37.0107 288.059 36.8133 288.059 36.6V35.24H286.363C285.627 35.24 285.088 35.3467 284.747 35.56C284.416 35.7733 284.251 36.0827 284.251 36.488V36.824C284.251 37.2293 284.395 37.544 284.683 37.768C284.982 37.992 285.382 38.104 285.883 38.104ZM293.47 39C293.022 39 292.681 38.8773 292.446 38.632C292.222 38.376 292.11 38.056 292.11 37.672V27.16H293.39V37.88H294.606V39H293.47ZM1.36 65V56.744H2.64V58.088H2.704C2.8 57.8747 2.90667 57.6773 3.024 57.496C3.152 57.304 3.30133 57.1387 3.472 57C3.65333 56.8613 3.86133 56.7547 4.096 56.68C4.33067 56.5947 4.608 56.552 4.928 56.552C5.472 56.552 5.97333 56.6853 6.432 56.952C6.89067 57.208 7.232 57.6347 7.456 58.232H7.488C7.63733 57.784 7.91467 57.3947 8.32 57.064C8.736 56.7227 9.296 56.552 10 56.552C10.8427 56.552 11.4987 56.8293 11.968 57.384C12.448 57.928 12.688 58.7013 12.688 59.704V65H11.408V59.928C11.408 59.192 11.264 58.6373 10.976 58.264C10.688 57.8907 10.2293 57.704 9.6 57.704C9.344 57.704 9.09867 57.736 8.864 57.8C8.64 57.864 8.43733 57.96 8.256 58.088C8.07467 58.216 7.93067 58.3813 7.824 58.584C7.71733 58.776 7.664 59.0053 7.664 59.272V65H6.384V59.928C6.384 59.192 6.24 58.6373 5.952 58.264C5.664 57.8907 5.216 57.704 4.608 57.704C4.352 57.704 4.10667 57.736 3.872 57.8C3.63733 57.864 3.42933 57.96 3.248 58.088C3.06667 58.216 2.91733 58.3813 2.8 58.584C2.69333 58.776 2.64 59.0053 2.64 59.272V65H1.36ZM18.4328 65.192C17.8674 65.192 17.3554 65.0907 16.8968 64.888C16.4488 64.6853 16.0594 64.3973 15.7288 64.024C15.4088 63.64 15.1581 63.1867 14.9768 62.664C14.8061 62.1307 14.7208 61.5333 14.7208 60.872C14.7208 60.2213 14.8061 59.6293 14.9768 59.096C15.1581 58.5627 15.4088 58.1093 15.7288 57.736C16.0594 57.352 16.4488 57.0587 16.8968 56.856C17.3554 56.6533 17.8674 56.552 18.4328 56.552C18.9874 56.552 19.4834 56.6533 19.9208 56.856C20.3581 57.0587 20.7314 57.3413 21.0408 57.704C21.3501 58.056 21.5848 58.4773 21.7448 58.968C21.9154 59.4587 22.0008 59.9973 22.0008 60.584V61.192H16.0648V61.576C16.0648 61.928 16.1181 62.2587 16.2248 62.568C16.3421 62.8667 16.5021 63.128 16.7048 63.352C16.9181 63.576 17.1741 63.752 17.4728 63.88C17.7821 64.008 18.1288 64.072 18.5128 64.072C19.0354 64.072 19.4888 63.9493 19.8728 63.704C20.2674 63.4587 20.5714 63.1067 20.7848 62.648L21.6968 63.304C21.4301 63.8693 21.0141 64.328 20.4488 64.68C19.8834 65.0213 19.2114 65.192 18.4328 65.192ZM18.4328 57.624C18.0808 57.624 17.7608 57.688 17.4728 57.816C17.1848 57.9333 16.9341 58.104 16.7208 58.328C16.5181 58.552 16.3581 58.8187 16.2408 59.128C16.1234 59.4267 16.0648 59.7573 16.0648 60.12V60.232H20.6248V60.056C20.6248 59.32 20.4221 58.7333 20.0168 58.296C19.6221 57.848 19.0941 57.624 18.4328 57.624ZM29.39 63.656H29.326C28.8247 64.68 28.0193 65.192 26.91 65.192C26.398 65.192 25.934 65.0907 25.518 64.888C25.102 64.6853 24.7447 64.3973 24.446 64.024C24.158 63.6507 23.934 63.1973 23.774 62.664C23.6247 62.1307 23.55 61.5333 23.55 60.872C23.55 60.2107 23.6247 59.6133 23.774 59.08C23.934 58.5467 24.158 58.0933 24.446 57.72C24.7447 57.3467 25.102 57.0587 25.518 56.856C25.934 56.6533 26.398 56.552 26.91 56.552C27.486 56.552 27.9767 56.68 28.382 56.936C28.798 57.1813 29.1127 57.5653 29.326 58.088H29.39V53.16H30.67V65H29.39V63.656ZM27.262 64.04C27.55 64.04 27.822 64.0027 28.078 63.928C28.3447 63.8533 28.574 63.7467 28.766 63.608C28.958 63.4587 29.1073 63.2827 29.214 63.08C29.3313 62.8667 29.39 62.6267 29.39 62.36V59.288C29.39 59.064 29.3313 58.856 29.214 58.664C29.1073 58.4613 28.958 58.2907 28.766 58.152C28.574 58.0133 28.3447 57.9067 28.078 57.832C27.822 57.7467 27.55 57.704 27.262 57.704C26.5367 57.704 25.966 57.9333 25.55 58.392C25.134 58.84 24.926 59.432 24.926 60.168V61.576C24.926 62.312 25.134 62.9093 25.55 63.368C25.966 63.816 26.5367 64.04 27.262 64.04ZM34.0312 54.808C33.7539 54.808 33.5513 54.744 33.4233 54.616C33.3059 54.4773 33.2473 54.3013 33.2473 54.088V53.88C33.2473 53.6667 33.3059 53.496 33.4233 53.368C33.5513 53.2293 33.7539 53.16 34.0312 53.16C34.3086 53.16 34.5059 53.2293 34.6233 53.368C34.7513 53.496 34.8153 53.6667 34.8153 53.88V54.088C34.8153 54.3013 34.7513 54.4773 34.6233 54.616C34.5059 54.744 34.3086 54.808 34.0312 54.808ZM33.3913 56.744H34.6713V65H33.3913V56.744ZM43.3913 65C42.9113 65 42.5646 64.872 42.3513 64.616C42.1486 64.36 42.0206 64.04 41.9673 63.656H41.8873C41.7059 64.168 41.4073 64.552 40.9913 64.808C40.5753 65.064 40.0793 65.192 39.5033 65.192C38.6286 65.192 37.9459 64.968 37.4553 64.52C36.9753 64.072 36.7353 63.464 36.7353 62.696C36.7353 61.9173 37.0179 61.32 37.5833 60.904C38.1593 60.488 39.0499 60.28 40.2552 60.28H41.8873V59.464C41.8873 58.8773 41.7273 58.4293 41.4073 58.12C41.0873 57.8107 40.5966 57.656 39.9353 57.656C39.4339 57.656 39.0126 57.768 38.6713 57.992C38.3406 58.216 38.0633 58.5147 37.8393 58.888L37.0713 58.168C37.2953 57.72 37.6526 57.3413 38.1432 57.032C38.6339 56.712 39.2526 56.552 39.9993 56.552C41.0019 56.552 41.7806 56.7973 42.3353 57.288C42.8899 57.7787 43.1673 58.4613 43.1673 59.336V63.88H44.1112V65H43.3913ZM39.7113 64.104C40.0313 64.104 40.3246 64.0667 40.5913 63.992C40.8579 63.9173 41.0873 63.8107 41.2793 63.672C41.4713 63.5333 41.6206 63.3733 41.7273 63.192C41.8339 63.0107 41.8873 62.8133 41.8873 62.6V61.24H40.1913C39.4553 61.24 38.9166 61.3467 38.5753 61.56C38.2446 61.7733 38.0793 62.0827 38.0793 62.488V62.824C38.0793 63.2293 38.2233 63.544 38.5113 63.768C38.8099 63.992 39.2099 64.104 39.7113 64.104ZM52.8394 65.192C52.2847 65.192 51.778 65.0907 51.3194 64.888C50.8607 64.6853 50.466 64.3973 50.1354 64.024C49.8154 63.64 49.5647 63.1867 49.3834 62.664C49.202 62.1307 49.1114 61.5333 49.1114 60.872C49.1114 60.2213 49.202 59.6293 49.3834 59.096C49.5647 58.5627 49.8154 58.1093 50.1354 57.736C50.466 57.352 50.8607 57.0587 51.3194 56.856C51.778 56.6533 52.2847 56.552 52.8394 56.552C53.394 56.552 53.8954 56.6533 54.3434 56.856C54.802 57.0587 55.1967 57.352 55.5274 57.736C55.858 58.1093 56.114 58.5627 56.2954 59.096C56.4767 59.6293 56.5674 60.2213 56.5674 60.872C56.5674 61.5333 56.4767 62.1307 56.2954 62.664C56.114 63.1867 55.858 63.64 55.5274 64.024C55.1967 64.3973 54.802 64.6853 54.3434 64.888C53.8954 65.0907 53.394 65.192 52.8394 65.192ZM52.8394 64.056C53.5327 64.056 54.098 63.8427 54.5354 63.416C54.9727 62.9893 55.1914 62.3387 55.1914 61.464V60.28C55.1914 59.4053 54.9727 58.7547 54.5354 58.328C54.098 57.9013 53.5327 57.688 52.8394 57.688C52.146 57.688 51.5807 57.9013 51.1434 58.328C50.706 58.7547 50.4874 59.4053 50.4874 60.28V61.464C50.4874 62.3387 50.706 62.9893 51.1434 63.416C51.5807 63.8427 52.146 64.056 52.8394 64.056ZM58.6725 65V56.744H59.9525V58.264H60.0325C60.1818 57.8693 60.4485 57.5173 60.8325 57.208C61.2165 56.8987 61.7445 56.744 62.4165 56.744H62.9125V58.024H62.1605C61.4672 58.024 60.9232 58.1573 60.5285 58.424C60.1445 58.68 59.9525 59.0053 59.9525 59.4V65H58.6725ZM71.4328 65.192C70.8674 65.192 70.3554 65.0907 69.8968 64.888C69.4488 64.6853 69.0594 64.3973 68.7288 64.024C68.4088 63.64 68.1581 63.1867 67.9768 62.664C67.8061 62.1307 67.7208 61.5333 67.7208 60.872C67.7208 60.2213 67.8061 59.6293 67.9768 59.096C68.1581 58.5627 68.4088 58.1093 68.7288 57.736C69.0594 57.352 69.4488 57.0587 69.8968 56.856C70.3554 56.6533 70.8674 56.552 71.4328 56.552C71.9874 56.552 72.4834 56.6533 72.9208 56.856C73.3581 57.0587 73.7314 57.3413 74.0408 57.704C74.3501 58.056 74.5848 58.4773 74.7448 58.968C74.9154 59.4587 75.0008 59.9973 75.0008 60.584V61.192H69.0648V61.576C69.0648 61.928 69.1181 62.2587 69.2248 62.568C69.3421 62.8667 69.5021 63.128 69.7048 63.352C69.9181 63.576 70.1741 63.752 70.4728 63.88C70.7821 64.008 71.1288 64.072 71.5128 64.072C72.0354 64.072 72.4888 63.9493 72.8728 63.704C73.2674 63.4587 73.5714 63.1067 73.7848 62.648L74.6968 63.304C74.4301 63.8693 74.0141 64.328 73.4488 64.68C72.8834 65.0213 72.2114 65.192 71.4328 65.192ZM71.4328 57.624C71.0808 57.624 70.7608 57.688 70.4728 57.816C70.1848 57.9333 69.9341 58.104 69.7208 58.328C69.5181 58.552 69.3581 58.8187 69.2408 59.128C69.1234 59.4267 69.0648 59.7573 69.0648 60.12V60.232H73.6248V60.056C73.6248 59.32 73.4221 58.7333 73.0168 58.296C72.6221 57.848 72.0941 57.624 71.4328 57.624ZM77.11 65V56.744H78.39V58.088H78.454C78.55 57.8747 78.6567 57.6773 78.774 57.496C78.902 57.304 79.0513 57.1387 79.222 57C79.4033 56.8613 79.6113 56.7547 79.846 56.68C80.0807 56.5947 80.358 56.552 80.678 56.552C81.222 56.552 81.7233 56.6853 82.182 56.952C82.6407 57.208 82.982 57.6347 83.206 58.232H83.238C83.3873 57.784 83.6647 57.3947 84.07 57.064C84.486 56.7227 85.046 56.552 85.75 56.552C86.5927 56.552 87.2487 56.8293 87.718 57.384C88.198 57.928 88.438 58.7013 88.438 59.704V65H87.158V59.928C87.158 59.192 87.014 58.6373 86.726 58.264C86.438 57.8907 85.9793 57.704 85.35 57.704C85.094 57.704 84.8487 57.736 84.614 57.8C84.39 57.864 84.1873 57.96 84.006 58.088C83.8247 58.216 83.6807 58.3813 83.574 58.584C83.4673 58.776 83.414 59.0053 83.414 59.272V65H82.134V59.928C82.134 59.192 81.99 58.6373 81.702 58.264C81.414 57.8907 80.966 57.704 80.358 57.704C80.102 57.704 79.8567 57.736 79.622 57.8C79.3873 57.864 79.1793 57.96 78.998 58.088C78.8167 58.216 78.6673 58.3813 78.55 58.584C78.4433 58.776 78.39 59.0053 78.39 59.272V65H77.11ZM97.0788 65C96.5988 65 96.2521 64.872 96.0388 64.616C95.8361 64.36 95.7081 64.04 95.6548 63.656H95.5748C95.3934 64.168 95.0948 64.552 94.6788 64.808C94.2628 65.064 93.7668 65.192 93.1908 65.192C92.3161 65.192 91.6334 64.968 91.1428 64.52C90.6628 64.072 90.4228 63.464 90.4228 62.696C90.4228 61.9173 90.7054 61.32 91.2708 60.904C91.8468 60.488 92.7374 60.28 93.9427 60.28H95.5748V59.464C95.5748 58.8773 95.4148 58.4293 95.0948 58.12C94.7748 57.8107 94.2841 57.656 93.6228 57.656C93.1214 57.656 92.7001 57.768 92.3588 57.992C92.0281 58.216 91.7508 58.5147 91.5268 58.888L90.7588 58.168C90.9828 57.72 91.3401 57.3413 91.8307 57.032C92.3214 56.712 92.9401 56.552 93.6868 56.552C94.6894 56.552 95.4681 56.7973 96.0228 57.288C96.5774 57.7787 96.8548 58.4613 96.8548 59.336V63.88H97.7987V65H97.0788ZM93.3988 64.104C93.7188 64.104 94.0121 64.0667 94.2788 63.992C94.5454 63.9173 94.7748 63.8107 94.9668 63.672C95.1588 63.5333 95.3081 63.3733 95.4148 63.192C95.5214 63.0107 95.5748 62.8133 95.5748 62.6V61.24H93.8788C93.1428 61.24 92.6041 61.3467 92.2628 61.56C91.9321 61.7733 91.7668 62.0827 91.7668 62.488V62.824C91.7668 63.2293 91.9108 63.544 92.1988 63.768C92.4974 63.992 92.8974 64.104 93.3988 64.104ZM100.266 54.808C99.9883 54.808 99.7856 54.744 99.6576 54.616C99.5403 54.4773 99.4816 54.3013 99.4816 54.088V53.88C99.4816 53.6667 99.5403 53.496 99.6576 53.368C99.7856 53.2293 99.9883 53.16 100.266 53.16C100.543 53.16 100.74 53.2293 100.858 53.368C100.986 53.496 101.05 53.6667 101.05 53.88V54.088C101.05 54.3013 100.986 54.4773 100.858 54.616C100.74 54.744 100.543 54.808 100.266 54.808ZM99.6256 56.744H100.906V65H99.6256V56.744ZM104.986 65C104.538 65 104.196 64.8773 103.962 64.632C103.738 64.376 103.626 64.056 103.626 63.672V53.16H104.906V63.88H106.122V65H104.986ZM116.854 63.656H116.79C116.705 63.848 116.598 64.04 116.47 64.232C116.353 64.4133 116.204 64.5787 116.022 64.728C115.841 64.8667 115.622 64.9787 115.366 65.064C115.11 65.1493 114.812 65.192 114.47 65.192C113.617 65.192 112.94 64.92 112.438 64.376C111.937 63.8213 111.686 63.0427 111.686 62.04V56.744H112.966V61.816C112.966 63.2987 113.596 64.04 114.854 64.04C115.11 64.04 115.356 64.008 115.59 63.944C115.836 63.88 116.049 63.784 116.23 63.656C116.422 63.528 116.572 63.368 116.678 63.176C116.796 62.9733 116.854 62.7333 116.854 62.456V56.744H118.134V65H116.854V63.656ZM123.34 65.192C122.572 65.192 121.927 65.048 121.404 64.76C120.892 64.4613 120.449 64.0667 120.076 63.576L120.988 62.84C121.308 63.2453 121.665 63.56 122.06 63.784C122.455 63.9973 122.913 64.104 123.436 64.104C123.98 64.104 124.401 63.9867 124.7 63.752C125.009 63.5173 125.164 63.1867 125.164 62.76C125.164 62.44 125.057 62.168 124.844 61.944C124.641 61.7093 124.268 61.5493 123.724 61.464L123.068 61.368C122.684 61.3147 122.332 61.2347 122.012 61.128C121.692 61.0107 121.409 60.8613 121.164 60.68C120.929 60.488 120.743 60.2533 120.604 59.976C120.476 59.6987 120.412 59.368 120.412 58.984C120.412 58.5787 120.487 58.2267 120.636 57.928C120.785 57.6187 120.988 57.3627 121.244 57.16C121.511 56.9573 121.825 56.808 122.188 56.712C122.551 56.6053 122.94 56.552 123.356 56.552C124.028 56.552 124.588 56.6693 125.036 56.904C125.495 57.1387 125.895 57.464 126.236 57.88L125.388 58.648C125.207 58.392 124.94 58.1627 124.588 57.96C124.236 57.7467 123.793 57.64 123.26 57.64C122.727 57.64 122.321 57.7573 122.044 57.992C121.777 58.216 121.644 58.5253 121.644 58.92C121.644 59.3253 121.777 59.6187 122.044 59.8C122.321 59.9813 122.716 60.1147 123.228 60.2L123.868 60.296C124.785 60.4347 125.436 60.7013 125.82 61.096C126.204 61.48 126.396 61.9867 126.396 62.616C126.396 63.416 126.124 64.0453 125.58 64.504C125.036 64.9627 124.289 65.192 123.34 65.192ZM138.438 65C137.958 65 137.611 64.872 137.398 64.616C137.195 64.36 137.067 64.04 137.014 63.656H136.934C136.753 64.168 136.454 64.552 136.038 64.808C135.622 65.064 135.126 65.192 134.55 65.192C133.675 65.192 132.993 64.968 132.502 64.52C132.022 64.072 131.782 63.464 131.782 62.696C131.782 61.9173 132.065 61.32 132.63 60.904C133.206 60.488 134.097 60.28 135.302 60.28H136.934V59.464C136.934 58.8773 136.774 58.4293 136.454 58.12C136.134 57.8107 135.643 57.656 134.982 57.656C134.481 57.656 134.059 57.768 133.718 57.992C133.387 58.216 133.11 58.5147 132.886 58.888L132.118 58.168C132.342 57.72 132.699 57.3413 133.19 57.032C133.681 56.712 134.299 56.552 135.046 56.552C136.049 56.552 136.827 56.7973 137.382 57.288C137.937 57.7787 138.214 58.4613 138.214 59.336V63.88H139.158V65H138.438ZM134.758 64.104C135.078 64.104 135.371 64.0667 135.638 63.992C135.905 63.9173 136.134 63.8107 136.326 63.672C136.518 63.5333 136.667 63.3733 136.774 63.192C136.881 63.0107 136.934 62.8133 136.934 62.6V61.24H135.238C134.502 61.24 133.963 61.3467 133.622 61.56C133.291 61.7733 133.126 62.0827 133.126 62.488V62.824C133.126 63.2293 133.27 63.544 133.558 63.768C133.857 63.992 134.257 64.104 134.758 64.104ZM142.809 65C142.361 65 142.02 64.8773 141.785 64.632C141.561 64.376 141.449 64.0453 141.449 63.64V57.864H140.089V56.744H140.857C141.134 56.744 141.321 56.6907 141.417 56.584C141.524 56.4667 141.577 56.2693 141.577 55.992V54.456H142.729V56.744H144.537V57.864H142.729V63.88H144.409V65H142.809ZM4.608 91.192C3.968 91.192 3.39733 91.0907 2.896 90.888C2.39467 90.6747 1.968 90.3813 1.616 90.008C1.27467 89.624 1.01333 89.16 0.832 88.616C0.661333 88.072 0.576 87.464 0.576 86.792C0.576 86.1307 0.661333 85.5333 0.832 85C1.00267 84.456 1.25333 83.992 1.584 83.608C1.92533 83.224 2.34133 82.9307 2.832 82.728C3.32267 82.5147 3.88267 82.408 4.512 82.408C5.20533 82.408 5.79733 82.5253 6.288 82.76C6.78933 82.9947 7.19467 83.3093 7.504 83.704C7.824 84.0987 8.05333 84.5573 8.192 85.08C8.34133 85.592 8.416 86.1307 8.416 86.696V87.4H3.024V87.528C3.024 88.0827 3.17333 88.5253 3.472 88.856C3.77067 89.176 4.24 89.336 4.88 89.336C5.37067 89.336 5.77067 89.24 6.08 89.048C6.38933 88.8453 6.67733 88.6053 6.944 88.328L8.128 89.8C7.75467 90.2373 7.264 90.5787 6.656 90.824C6.05867 91.0693 5.376 91.192 4.608 91.192ZM4.56 84.152C4.08 84.152 3.70133 84.312 3.424 84.632C3.15733 84.9413 3.024 85.3573 3.024 85.88V86.008H5.968V85.864C5.968 85.352 5.85067 84.9413 5.616 84.632C5.392 84.312 5.04 84.152 4.56 84.152ZM15.2404 89.592H15.1604C15.0964 89.816 14.995 90.0293 14.8564 90.232C14.7177 90.424 14.547 90.5947 14.3444 90.744C14.1524 90.8827 13.9284 90.9893 13.6724 91.064C13.427 91.1493 13.171 91.192 12.9044 91.192C11.8377 91.192 11.0324 90.8187 10.4884 90.072C9.94438 89.3147 9.67238 88.2213 9.67238 86.792C9.67238 85.3627 9.94438 84.2747 10.4884 83.528C11.0324 82.7813 11.8377 82.408 12.9044 82.408C13.4484 82.408 13.9284 82.5573 14.3444 82.856C14.771 83.1547 15.043 83.5387 15.1604 84.008H15.2404V82.6H17.6084V94.2H15.2404V89.592ZM13.6884 89.272C14.1364 89.272 14.5044 89.1653 14.7924 88.952C15.091 88.728 15.2404 88.424 15.2404 88.04V85.56C15.2404 85.176 15.091 84.8773 14.7924 84.664C14.5044 84.44 14.1364 84.328 13.6884 84.328C13.2404 84.328 12.867 84.488 12.5684 84.808C12.2804 85.1173 12.1364 85.5387 12.1364 86.072V87.528C12.1364 88.0613 12.2804 88.488 12.5684 88.808C12.867 89.1173 13.2404 89.272 13.6884 89.272ZM24.7828 89.592H24.7028C24.6281 89.8053 24.5268 90.008 24.3988 90.2C24.2814 90.392 24.1268 90.5627 23.9348 90.712C23.7428 90.8613 23.5134 90.9787 23.2468 91.064C22.9908 91.1493 22.6921 91.192 22.3508 91.192C21.4868 91.192 20.8308 90.9093 20.3828 90.344C19.9454 89.768 19.7268 88.9467 19.7268 87.88V82.6H22.0948V87.672C22.0948 88.184 22.1854 88.5787 22.3668 88.856C22.5481 89.1333 22.8574 89.272 23.2948 89.272C23.4761 89.272 23.6574 89.2453 23.8388 89.192C24.0201 89.1387 24.1801 89.064 24.3188 88.968C24.4574 88.8613 24.5694 88.7333 24.6548 88.584C24.7401 88.4347 24.7828 88.2587 24.7828 88.056V82.6H27.1508V91H24.7828V89.592ZM35.562 91C35.1353 91 34.778 90.8667 34.49 90.6C34.2127 90.3333 34.0367 89.976 33.962 89.528H33.866C33.738 90.072 33.4553 90.488 33.018 90.776C32.5807 91.0533 32.042 91.192 31.402 91.192C30.5593 91.192 29.914 90.968 29.466 90.52C29.018 90.072 28.794 89.48 28.794 88.744C28.794 87.8587 29.114 87.2027 29.754 86.776C30.4047 86.3387 31.2847 86.12 32.394 86.12H33.722V85.592C33.722 85.1867 33.6153 84.8667 33.402 84.632C33.1887 84.3867 32.8313 84.264 32.33 84.264C31.8607 84.264 31.4873 84.3653 31.21 84.568C30.9327 84.7707 30.7033 85 30.522 85.256L29.114 84.008C29.4553 83.5067 29.882 83.1173 30.394 82.84C30.9167 82.552 31.6207 82.408 32.506 82.408C33.7007 82.408 34.5967 82.6693 35.194 83.192C35.7913 83.7147 36.09 84.4773 36.09 85.48V89.16H36.874V91H35.562ZM32.282 89.544C32.6767 89.544 33.0127 89.4587 33.29 89.288C33.578 89.1173 33.722 88.84 33.722 88.456V87.464H32.57C31.642 87.464 31.178 87.7787 31.178 88.408V88.648C31.178 88.9573 31.274 89.1867 31.466 89.336C31.658 89.4747 31.93 89.544 32.282 89.544ZM40.8154 91C40.0047 91 39.4074 90.8027 39.0234 90.408C38.65 90.0133 38.4634 89.4427 38.4634 88.696V79.16H40.8314V89.16H41.8874V91H40.8154ZM44.4911 81.704C44.0111 81.704 43.6591 81.5973 43.4351 81.384C43.2218 81.16 43.1151 80.8773 43.1151 80.536V80.184C43.1151 79.8427 43.2218 79.5653 43.4351 79.352C43.6591 79.128 44.0111 79.016 44.4911 79.016C44.9711 79.016 45.3178 79.128 45.5311 79.352C45.7551 79.5653 45.8671 79.8427 45.8671 80.184V80.536C45.8671 80.8773 45.7551 81.16 45.5311 81.384C45.3178 81.5973 44.9711 81.704 44.4911 81.704ZM43.3071 82.6H45.6751V91H43.3071V82.6ZM47.4053 91V89.128L51.5813 84.44H47.5493V82.6H54.3333V84.456L50.1413 89.16H54.4453V91H47.4053ZM59.6705 91.192C59.0305 91.192 58.4598 91.0907 57.9585 90.888C57.4572 90.6747 57.0305 90.3813 56.6785 90.008C56.3372 89.624 56.0758 89.16 55.8945 88.616C55.7238 88.072 55.6385 87.464 55.6385 86.792C55.6385 86.1307 55.7238 85.5333 55.8945 85C56.0652 84.456 56.3158 83.992 56.6465 83.608C56.9878 83.224 57.4038 82.9307 57.8945 82.728C58.3852 82.5147 58.9452 82.408 59.5745 82.408C60.2678 82.408 60.8598 82.5253 61.3505 82.76C61.8518 82.9947 62.2572 83.3093 62.5665 83.704C62.8865 84.0987 63.1158 84.5573 63.2545 85.08C63.4038 85.592 63.4785 86.1307 63.4785 86.696V87.4H58.0865V87.528C58.0865 88.0827 58.2358 88.5253 58.5345 88.856C58.8332 89.176 59.3025 89.336 59.9425 89.336C60.4332 89.336 60.8332 89.24 61.1425 89.048C61.4518 88.8453 61.7398 88.6053 62.0065 88.328L63.1905 89.8C62.8172 90.2373 62.3265 90.5787 61.7185 90.824C61.1212 91.0693 60.4385 91.192 59.6705 91.192ZM59.6225 84.152C59.1425 84.152 58.7638 84.312 58.4865 84.632C58.2198 84.9413 58.0865 85.3573 58.0865 85.88V86.008H61.0305V85.864C61.0305 85.352 60.9132 84.9413 60.6785 84.632C60.4545 84.312 60.1025 84.152 59.6225 84.152ZM65.1509 91V82.6H67.5189V84.424H67.5989C67.6415 84.1893 67.7162 83.9653 67.8229 83.752C67.9295 83.528 68.0682 83.3307 68.2389 83.16C68.4202 82.9893 68.6335 82.856 68.8789 82.76C69.1242 82.6533 69.4122 82.6 69.7429 82.6H70.1589V84.808H69.5669C68.8735 84.808 68.3562 84.8987 68.0149 85.08C67.6842 85.2613 67.5189 85.5973 67.5189 86.088V91H65.1509ZM81.2676 92.936H77.9076C76.8943 92.936 75.9876 92.776 75.1876 92.456C74.3983 92.136 73.7263 91.6827 73.1716 91.096C72.6276 90.52 72.2116 89.832 71.9236 89.032C71.6356 88.2213 71.4916 87.3253 71.4916 86.344C71.4916 85.3733 71.641 84.4773 71.9396 83.656C72.2383 82.8347 72.665 82.1307 73.2196 81.544C73.7743 80.9467 74.4463 80.4827 75.2356 80.152C76.025 79.8213 76.9156 79.656 77.9076 79.656C78.825 79.656 79.6623 79.8 80.4196 80.088C81.177 80.3653 81.8223 80.7653 82.3556 81.288C82.8996 81.8 83.3156 82.4293 83.6036 83.176C83.9023 83.912 84.0516 84.7333 84.0516 85.64C84.0516 86.92 83.7796 87.9173 83.2356 88.632C82.7023 89.336 81.977 89.688 81.0596 89.688C80.4836 89.688 80.0143 89.5493 79.6516 89.272C79.289 88.9947 79.0916 88.632 79.0596 88.184H78.9796C78.873 88.632 78.6703 88.9893 78.3716 89.256C78.0836 89.5227 77.673 89.656 77.1396 89.656C76.4356 89.656 75.849 89.3787 75.3796 88.824C74.9103 88.2587 74.6756 87.432 74.6756 86.344C74.6756 85.256 74.9103 84.4347 75.3796 83.88C75.849 83.3147 76.4356 83.032 77.1396 83.032C77.5876 83.032 77.9503 83.1547 78.2276 83.4C78.505 83.6347 78.6916 83.928 78.7876 84.28H78.8676V83.176H80.6436V87.48C80.6436 88.0133 80.8783 88.28 81.3476 88.28C81.7103 88.28 82.0036 88.088 82.2276 87.704C82.4516 87.3093 82.5636 86.7013 82.5636 85.88V85.432C82.5636 84.7493 82.4463 84.136 82.2116 83.592C81.9876 83.048 81.6676 82.5893 81.2516 82.216C80.8463 81.8427 80.3556 81.5547 79.7796 81.352C79.2143 81.1493 78.5903 81.048 77.9076 81.048C77.1503 81.048 76.4676 81.1707 75.8596 81.416C75.2623 81.6613 74.745 82.008 74.3076 82.456C73.881 82.8933 73.5503 83.4213 73.3156 84.04C73.0916 84.648 72.9796 85.3147 72.9796 86.04V86.648C72.9796 87.3733 73.0916 88.04 73.3156 88.648C73.5503 89.2453 73.881 89.7573 74.3076 90.184C74.745 90.6107 75.2623 90.9413 75.8596 91.176C76.4676 91.4107 77.1503 91.528 77.9076 91.528H81.2676V92.936ZM77.7956 88.2C78.073 88.2 78.3183 88.0987 78.5316 87.896C78.7556 87.6827 78.8676 87.4533 78.8676 87.208V85.352C78.8676 85.1067 78.7556 84.904 78.5316 84.744C78.3183 84.5733 78.073 84.488 77.7956 84.488C77.4116 84.488 77.1023 84.6107 76.8676 84.856C76.6436 85.1013 76.5316 85.416 76.5316 85.8V86.888C76.5316 87.272 76.6436 87.5867 76.8676 87.832C77.1023 88.0773 77.4116 88.2 77.7956 88.2ZM89.5768 91.192C88.9368 91.192 88.3661 91.0907 87.8648 90.888C87.3634 90.6747 86.9368 90.3813 86.5848 90.008C86.2434 89.624 85.9821 89.16 85.8008 88.616C85.6301 88.072 85.5448 87.464 85.5448 86.792C85.5448 86.1307 85.6301 85.5333 85.8008 85C85.9714 84.456 86.2221 83.992 86.5528 83.608C86.8941 83.224 87.3101 82.9307 87.8008 82.728C88.2914 82.5147 88.8514 82.408 89.4808 82.408C90.1741 82.408 90.7661 82.5253 91.2568 82.76C91.7581 82.9947 92.1634 83.3093 92.4728 83.704C92.7928 84.0987 93.0221 84.5573 93.1608 85.08C93.3101 85.592 93.3848 86.1307 93.3848 86.696V87.4H87.9928V87.528C87.9928 88.0827 88.1421 88.5253 88.4408 88.856C88.7394 89.176 89.2088 89.336 89.8488 89.336C90.3394 89.336 90.7394 89.24 91.0488 89.048C91.3581 88.8453 91.6461 88.6053 91.9128 88.328L93.0968 89.8C92.7234 90.2373 92.2328 90.5787 91.6248 90.824C91.0274 91.0693 90.3448 91.192 89.5768 91.192ZM89.5288 84.152C89.0488 84.152 88.6701 84.312 88.3928 84.632C88.1261 84.9413 87.9928 85.3573 87.9928 85.88V86.008H90.9368V85.864C90.9368 85.352 90.8194 84.9413 90.5848 84.632C90.3608 84.312 90.0088 84.152 89.5288 84.152ZM94.2411 91L97.0091 86.728L94.2731 82.6H96.9611L98.5291 85.24H98.5931L100.113 82.6H102.609L99.8251 86.808L102.625 91H99.9371L98.3211 88.264H98.2571L96.7051 91H94.2411ZM110.218 91C109.792 91 109.434 90.8667 109.146 90.6C108.869 90.3333 108.693 89.976 108.618 89.528H108.522C108.394 90.072 108.112 90.488 107.674 90.776C107.237 91.0533 106.698 91.192 106.058 91.192C105.216 91.192 104.57 90.968 104.122 90.52C103.674 90.072 103.45 89.48 103.45 88.744C103.45 87.8587 103.77 87.2027 104.41 86.776C105.061 86.3387 105.941 86.12 107.05 86.12H108.378V85.592C108.378 85.1867 108.272 84.8667 108.058 84.632C107.845 84.3867 107.488 84.264 106.986 84.264C106.517 84.264 106.144 84.3653 105.866 84.568C105.589 84.7707 105.36 85 105.178 85.256L103.77 84.008C104.112 83.5067 104.538 83.1173 105.05 82.84C105.573 82.552 106.277 82.408 107.162 82.408C108.357 82.408 109.253 82.6693 109.85 83.192C110.448 83.7147 110.746 84.4773 110.746 85.48V89.16H111.53V91H110.218ZM106.938 89.544C107.333 89.544 107.669 89.4587 107.946 89.288C108.234 89.1173 108.378 88.84 108.378 88.456V87.464H107.226C106.298 87.464 105.834 87.7787 105.834 88.408V88.648C105.834 88.9573 105.93 89.1867 106.122 89.336C106.314 89.4747 106.586 89.544 106.938 89.544ZM113.12 91V82.6H115.488V84.024H115.584C115.733 83.576 115.989 83.1973 116.352 82.888C116.714 82.568 117.21 82.408 117.84 82.408C118.416 82.408 118.906 82.552 119.312 82.84C119.717 83.128 120.01 83.5493 120.192 84.104H120.24C120.314 83.8693 120.426 83.6507 120.576 83.448C120.736 83.2347 120.928 83.0533 121.152 82.904C121.376 82.7547 121.626 82.6373 121.904 82.552C122.181 82.456 122.48 82.408 122.8 82.408C123.61 82.408 124.229 82.696 124.656 83.272C125.093 83.848 125.312 84.6693 125.312 85.736V91H122.944V85.928C122.944 84.8613 122.56 84.328 121.792 84.328C121.44 84.328 121.12 84.4293 120.832 84.632C120.544 84.8347 120.4 85.144 120.4 85.56V91H118.032V85.928C118.032 84.8613 117.648 84.328 116.88 84.328C116.709 84.328 116.538 84.3547 116.368 84.408C116.208 84.4507 116.058 84.5253 115.92 84.632C115.792 84.7387 115.685 84.872 115.6 85.032C115.525 85.1813 115.488 85.3573 115.488 85.56V91H113.12ZM127.417 82.6H129.785V84.008H129.865C129.982 83.5387 130.249 83.1547 130.665 82.856C131.091 82.5573 131.577 82.408 132.121 82.408C133.187 82.408 133.993 82.7813 134.536 83.528C135.08 84.2747 135.352 85.3627 135.352 86.792C135.352 88.2213 135.08 89.3147 134.536 90.072C133.993 90.8187 133.187 91.192 132.121 91.192C131.843 91.192 131.582 91.1493 131.337 91.064C131.091 90.9893 130.867 90.8827 130.665 90.744C130.473 90.5947 130.307 90.424 130.169 90.232C130.03 90.0293 129.929 89.816 129.865 89.592H129.785V94.2H127.417V82.6ZM131.337 89.272C131.785 89.272 132.153 89.1173 132.441 88.808C132.739 88.488 132.889 88.0613 132.889 87.528V86.072C132.889 85.5387 132.739 85.1173 132.441 84.808C132.153 84.488 131.785 84.328 131.337 84.328C130.889 84.328 130.515 84.44 130.217 84.664C129.929 84.8773 129.785 85.176 129.785 85.56V88.04C129.785 88.424 129.929 88.728 130.217 88.952C130.515 89.1653 130.889 89.272 131.337 89.272ZM139.503 91C138.692 91 138.095 90.8027 137.711 90.408C137.338 90.0133 137.151 89.4427 137.151 88.696V79.16H139.519V89.16H140.575V91H139.503ZM145.499 91.192C144.859 91.192 144.288 91.0907 143.787 90.888C143.285 90.6747 142.859 90.3813 142.507 90.008C142.165 89.624 141.904 89.16 141.723 88.616C141.552 88.072 141.467 87.464 141.467 86.792C141.467 86.1307 141.552 85.5333 141.723 85C141.893 84.456 142.144 83.992 142.475 83.608C142.816 83.224 143.232 82.9307 143.723 82.728C144.213 82.5147 144.773 82.408 145.403 82.408C146.096 82.408 146.688 82.5253 147.179 82.76C147.68 82.9947 148.085 83.3093 148.395 83.704C148.715 84.0987 148.944 84.5573 149.083 85.08C149.232 85.592 149.307 86.1307 149.307 86.696V87.4H143.915V87.528C143.915 88.0827 144.064 88.5253 144.363 88.856C144.661 89.176 145.131 89.336 145.771 89.336C146.261 89.336 146.661 89.24 146.971 89.048C147.28 88.8453 147.568 88.6053 147.835 88.328L149.019 89.8C148.645 90.2373 148.155 90.5787 147.547 90.824C146.949 91.0693 146.267 91.192 145.499 91.192ZM145.451 84.152C144.971 84.152 144.592 84.312 144.315 84.632C144.048 84.9413 143.915 85.3573 143.915 85.88V86.008H146.859V85.864C146.859 85.352 146.741 84.9413 146.507 84.632C146.283 84.312 145.931 84.152 145.451 84.152ZM152.355 91.176C151.875 91.176 151.518 91.0587 151.283 90.824C151.059 90.5787 150.947 90.2693 150.947 89.896V89.576C150.947 89.2027 151.059 88.8987 151.283 88.664C151.518 88.4187 151.875 88.296 152.355 88.296C152.835 88.296 153.187 88.4187 153.411 88.664C153.646 88.8987 153.763 89.2027 153.763 89.576V89.896C153.763 90.2693 153.646 90.5787 153.411 90.824C153.187 91.0587 152.835 91.176 152.355 91.176ZM159.324 91.192C158.695 91.192 158.135 91.0907 157.644 90.888C157.153 90.6747 156.743 90.3813 156.412 90.008C156.081 89.624 155.831 89.16 155.66 88.616C155.489 88.072 155.404 87.464 155.404 86.792C155.404 86.12 155.489 85.5173 155.66 84.984C155.831 84.44 156.081 83.976 156.412 83.592C156.743 83.208 157.153 82.9147 157.644 82.712C158.135 82.5093 158.695 82.408 159.324 82.408C160.177 82.408 160.887 82.6 161.452 82.984C162.028 83.368 162.439 83.9067 162.684 84.6L160.764 85.432C160.689 85.112 160.535 84.84 160.3 84.616C160.065 84.392 159.74 84.28 159.324 84.28C158.844 84.28 158.481 84.44 158.236 84.76C157.991 85.0693 157.868 85.4907 157.868 86.024V87.592C157.868 88.1253 157.991 88.5467 158.236 88.856C158.481 89.1653 158.844 89.32 159.324 89.32C159.751 89.32 160.087 89.208 160.332 88.984C160.588 88.7493 160.775 88.4453 160.892 88.072L162.732 88.872C162.455 89.672 162.023 90.2587 161.436 90.632C160.86 91.0053 160.156 91.192 159.324 91.192ZM167.606 91.192C166.987 91.192 166.432 91.0907 165.942 90.888C165.462 90.6853 165.051 90.392 164.71 90.008C164.379 89.624 164.123 89.16 163.942 88.616C163.76 88.072 163.67 87.464 163.67 86.792C163.67 86.12 163.76 85.512 163.942 84.968C164.123 84.424 164.379 83.9653 164.71 83.592C165.051 83.208 165.462 82.9147 165.942 82.712C166.432 82.5093 166.987 82.408 167.606 82.408C168.224 82.408 168.774 82.5093 169.254 82.712C169.744 82.9147 170.155 83.208 170.486 83.592C170.827 83.9653 171.088 84.424 171.27 84.968C171.451 85.512 171.542 86.12 171.542 86.792C171.542 87.464 171.451 88.072 171.27 88.616C171.088 89.16 170.827 89.624 170.486 90.008C170.155 90.392 169.744 90.6853 169.254 90.888C168.774 91.0907 168.224 91.192 167.606 91.192ZM167.606 89.32C168.075 89.32 168.438 89.176 168.694 88.888C168.95 88.6 169.078 88.1893 169.078 87.656V85.944C169.078 85.4107 168.95 85 168.694 84.712C168.438 84.424 168.075 84.28 167.606 84.28C167.136 84.28 166.774 84.424 166.518 84.712C166.262 85 166.134 85.4107 166.134 85.944V87.656C166.134 88.1893 166.262 88.6 166.518 88.888C166.774 89.176 167.136 89.32 167.606 89.32ZM173.229 91V82.6H175.597V84.024H175.693C175.842 83.576 176.098 83.1973 176.461 82.888C176.824 82.568 177.32 82.408 177.949 82.408C178.525 82.408 179.016 82.552 179.421 82.84C179.826 83.128 180.12 83.5493 180.301 84.104H180.349C180.424 83.8693 180.536 83.6507 180.685 83.448C180.845 83.2347 181.037 83.0533 181.261 82.904C181.485 82.7547 181.736 82.6373 182.013 82.552C182.29 82.456 182.589 82.408 182.909 82.408C183.72 82.408 184.338 82.696 184.765 83.272C185.202 83.848 185.421 84.6693 185.421 85.736V91H183.053V85.928C183.053 84.8613 182.669 84.328 181.901 84.328C181.549 84.328 181.229 84.4293 180.941 84.632C180.653 84.8347 180.509 85.144 180.509 85.56V91H178.141V85.928C178.141 84.8613 177.757 84.328 176.989 84.328C176.818 84.328 176.648 84.3547 176.477 84.408C176.317 84.4507 176.168 84.5253 176.029 84.632C175.901 84.7387 175.794 84.872 175.709 85.032C175.634 85.1813 175.597 85.3573 175.597 85.56V91H173.229Z" fill="#191826"/>
</svg>
